<svg width="25" height="26" viewBox="0 0 25 26" fill="none" xmlns="http://www.w3.org/2000/svg">
<path d="M12.4449 9.17327C11.6117 9.17327 10.8314 9.49652 10.2407 10.0873C9.65273 10.678 9.3267 11.4583 9.3267 12.2915C9.3267 13.1246 9.65273 13.9049 10.2407 14.4956C10.8314 15.0836 11.6117 15.4096 12.4449 15.4096C13.2781 15.4096 14.0583 15.0836 14.6491 14.4956C15.237 13.9049 15.5631 13.1246 15.5631 12.2915C15.5631 11.4583 15.237 10.678 14.6491 10.0873C14.3605 9.79651 14.0171 9.56598 13.6387 9.40908C13.2603 9.25218 12.8545 9.17202 12.4449 9.17327ZM23.934 15.7357L22.1115 14.178C22.1979 13.6485 22.2425 13.1079 22.2425 12.5701C22.2425 12.0323 22.1979 11.4889 22.1115 10.9623L23.934 9.40456C24.0716 9.28671 24.1702 9.12974 24.2164 8.95452C24.2627 8.77931 24.2546 8.59416 24.1931 8.42369L24.168 8.35123C23.6665 6.94872 22.915 5.64868 21.9499 4.51411L21.8997 4.45559C21.7826 4.3178 21.6264 4.21875 21.4518 4.1715C21.2772 4.12424 21.0923 4.13099 20.9217 4.19087L18.659 4.99619C17.823 4.31069 16.8923 3.7701 15.8835 3.39391L15.446 1.0281C15.413 0.849877 15.3266 0.685915 15.1982 0.557998C15.0697 0.430081 14.9054 0.344265 14.7271 0.311949L14.6519 0.298016C13.2028 0.0360779 11.6758 0.0360779 10.2268 0.298016L10.1515 0.311949C9.97317 0.344265 9.80888 0.430081 9.68046 0.557998C9.55205 0.685915 9.46559 0.849877 9.43259 1.0281L8.99231 3.40505C7.99312 3.78424 7.06231 4.32353 6.23638 5.00176L3.95696 4.19087C3.78632 4.13052 3.60136 4.12352 3.42666 4.1708C3.25195 4.21809 3.09577 4.31742 2.97887 4.45559L2.92871 4.51411C1.96537 5.64989 1.21404 6.94961 0.710589 8.35123L0.68551 8.42369C0.560114 8.77201 0.663217 9.16213 0.944662 9.40456L2.78938 10.979C2.70299 11.5029 2.6612 12.0379 2.6612 12.5673C2.6612 13.1024 2.70299 13.6374 2.78938 14.1557L0.950235 15.7301C0.812566 15.848 0.714034 16.0049 0.667742 16.1801C0.62145 16.3553 0.629591 16.5405 0.691083 16.711L0.716162 16.7834C1.22053 18.1851 1.96455 19.4808 2.93428 20.6205L2.98444 20.6791C3.10163 20.8169 3.25781 20.9159 3.43242 20.9632C3.60702 21.0104 3.79184 21.0037 3.96253 20.9438L6.24195 20.1329C7.07235 20.8156 7.9975 21.3562 8.99788 21.7296L9.43816 24.1066C9.47117 24.2848 9.55762 24.4487 9.68604 24.5767C9.81445 24.7046 9.97875 24.7904 10.1571 24.8227L10.2323 24.8366C11.6956 25.1 13.1941 25.1 14.6574 24.8366L14.7327 24.8227C14.911 24.7904 15.0753 24.7046 15.2037 24.5767C15.3321 24.4487 15.4186 24.2848 15.4516 24.1066L15.8891 21.7408C16.8978 21.3618 17.8286 20.824 18.6645 20.1385L20.9272 20.9438C21.0979 21.0041 21.2828 21.0111 21.4575 20.9639C21.6322 20.9166 21.7884 20.8172 21.9053 20.6791L21.9555 20.6205C22.9252 19.4753 23.6692 18.1851 24.1736 16.7834L24.1987 16.711C24.3185 16.3654 24.2154 15.9781 23.934 15.7357ZM12.4449 17.1903C9.73911 17.1903 7.54607 14.9972 7.54607 12.2915C7.54607 9.58569 9.73911 7.39265 12.4449 7.39265C15.1507 7.39265 17.3437 9.58569 17.3437 12.2915C17.3437 14.9972 15.1507 17.1903 12.4449 17.1903Z" fill="white"/>
</svg>
