<svg width="21" height="27" viewBox="0 0 21 27" fill="none" xmlns="http://www.w3.org/2000/svg">
<path d="M5.6434 26.4754L4.83737 26.4754C4.16963 26.4754 3.62833 25.9341 3.62833 25.2664L3.62833 7.13075L1.21025 7.13075C0.133847 7.13075 -0.403925 5.82604 0.355303 5.06676L4.38544 1.03663C4.85762 0.564496 5.62314 0.564496 6.09527 1.03663L10.1254 5.06676C10.8817 5.82317 10.3514 7.13075 9.27052 7.13075L6.85244 7.13075L6.85244 25.2664C6.85244 25.9341 6.31114 26.4754 5.6434 26.4754V26.4754ZM13.3007 1.89157L13.3007 20.0272L10.8826 20.0272C9.80884 20.0272 9.26649 21.33 10.0276 22.0912L14.0578 26.1213C14.5299 26.5934 15.2955 26.5934 15.7676 26.1213L19.7977 22.0912C20.5547 21.3341 20.0228 20.0272 18.9428 20.0272L16.5248 20.0272L16.5248 1.89157C16.5248 1.22383 15.9835 0.682529 15.3157 0.682529L14.5097 0.682529C13.842 0.682529 13.3007 1.22383 13.3007 1.89157Z" fill="white"/>
</svg>
