<svg width="25" height="24" viewBox="0 0 25 24" fill="none" xmlns="http://www.w3.org/2000/svg">
<path d="M24.1982 12.1869L13.228 1.10457C13.149 1.02456 13.0551 0.961086 12.9519 0.917776C12.8486 0.874466 12.7379 0.852173 12.626 0.852173C12.5142 0.852173 12.4035 0.874466 12.3002 0.917776C12.1969 0.961086 12.1031 1.02456 12.0241 1.10457L1.05393 12.1869C0.734328 12.51 0.553223 12.9489 0.553223 13.4066C0.553223 14.3571 1.3176 15.1298 2.25775 15.1298H3.41363V23.0377C3.41363 23.5143 3.79448 23.8993 4.26589 23.8993H10.9215V17.8681H13.9044V23.8993H20.9862C21.4576 23.8993 21.8385 23.5143 21.8385 23.0377V15.1298H22.9943C23.4471 15.1298 23.8812 14.9494 24.2008 14.6237C24.864 13.9505 24.864 12.8601 24.1982 12.1869V12.1869Z" fill="white"/>
</svg>
