<svg width="22" height="28" viewBox="0 0 22 28" fill="none" xmlns="http://www.w3.org/2000/svg">
<path d="M18.8705 5.95697H16.2182C16.2182 3.02623 13.8444 0.652466 10.9137 0.652466C7.98296 0.652466 5.60919 3.02623 5.60919 5.95697H2.95694C1.4982 5.95697 0.304688 7.15049 0.304688 8.60923V24.5227C0.304688 25.9815 1.4982 27.175 2.95694 27.175H18.8705C20.3292 27.175 21.5227 25.9815 21.5227 24.5227V8.60923C21.5227 7.15049 20.3292 5.95697 18.8705 5.95697ZM8.26145 11.2615C8.26145 11.9909 7.66469 12.5876 6.93532 12.5876C6.20595 12.5876 5.60919 11.9909 5.60919 11.2615V8.60923H8.26145V11.2615ZM10.9137 3.30472C12.3724 3.30472 13.566 4.49823 13.566 5.95697H8.26145C8.26145 4.49823 9.45496 3.30472 10.9137 3.30472ZM16.2182 11.2615C16.2182 11.9909 15.6215 12.5876 14.8921 12.5876C14.1627 12.5876 13.566 11.9909 13.566 11.2615V8.60923H16.2182V11.2615Z" fill="white"/>
</svg>
