<svg width="25" height="25" viewBox="0 0 25 25" fill="none" xmlns="http://www.w3.org/2000/svg">
<path fill-rule="evenodd" clip-rule="evenodd" d="M3.43478 4.10355C2.54147 4.96735 2.51773 6.38136 2.47023 9.20939L2.36948 15.2085C2.32198 18.0366 2.29823 19.4506 3.16203 20.3439C4.02584 21.2372 5.43985 21.261 8.26788 21.3085L18.2665 21.4764C19.1963 21.492 19.6612 21.4998 20.0444 21.404C21.0842 21.144 21.9063 20.3491 22.201 19.3186C22.3096 18.9389 22.3175 18.4739 22.3331 17.5441L16.3339 17.4434C14.6773 17.4155 13.3569 16.05 13.3847 14.3934C13.4125 12.7368 14.7781 11.4164 16.4347 11.4442L22.4338 11.545L22.4674 9.54523C22.5149 6.71721 22.5387 5.30319 21.6749 4.40988C20.8111 3.51657 19.397 3.49282 16.569 3.44533L8.57014 3.31099C5.74211 3.26349 4.3281 3.23975 3.43478 4.10355ZM7.50311 7.29363C6.9509 7.28436 6.49573 7.72449 6.48646 8.2767C6.47718 8.82891 6.91732 9.28408 7.46953 9.29335L10.4691 9.34373C11.0213 9.353 11.4765 8.91287 11.4858 8.36066C11.495 7.80845 11.0549 7.35328 10.5027 7.34401L7.50311 7.29363Z" fill="white"/>
<path d="M17.3841 14.4605L16.3843 14.4438" stroke="white" stroke-width="2" stroke-linecap="round"/>
</svg>
