<svg width="46" height="46" viewBox="0 0 46 46" fill="none" xmlns="http://www.w3.org/2000/svg">
<path d="M44.125 36H39.25V31.125C39.25 30.694 39.0788 30.2807 38.774 29.976C38.4693 29.6712 38.056 29.5 37.625 29.5C37.194 29.5 36.7807 29.6712 36.476 29.976C36.1712 30.2807 36 30.694 36 31.125V36H31.125C30.694 36 30.2807 36.1712 29.976 36.476C29.6712 36.7807 29.5 37.194 29.5 37.625C29.5 38.056 29.6712 38.4693 29.976 38.774C30.2807 39.0788 30.694 39.25 31.125 39.25H36V44.125C36 44.556 36.1712 44.9693 36.476 45.274C36.7807 45.5788 37.194 45.75 37.625 45.75C38.056 45.75 38.4693 45.5788 38.774 45.274C39.0788 44.9693 39.25 44.556 39.25 44.125V39.25H44.125C44.556 39.25 44.9693 39.0788 45.274 38.774C45.5788 38.4693 45.75 38.056 45.75 37.625C45.75 37.194 45.5788 36.7807 45.274 36.476C44.9693 36.1712 44.556 36 44.125 36Z" fill="white"/>
<path d="M24.625 36H5.125C4.69402 36 4.2807 35.8288 3.97595 35.524C3.67121 35.2193 3.5 34.806 3.5 34.375V5.125C3.5 4.69402 3.67121 4.2807 3.97595 3.97595C4.2807 3.67121 4.69402 3.5 5.125 3.5H34.375C34.806 3.5 35.2193 3.67121 35.524 3.97595C35.8288 4.2807 36 4.69402 36 5.125V24.625C36 25.056 36.1712 25.4693 36.476 25.774C36.7807 26.0788 37.194 26.25 37.625 26.25C38.056 26.25 38.4693 26.0788 38.774 25.774C39.0788 25.4693 39.25 25.056 39.25 24.625V5.125C39.25 3.83207 38.7364 2.59209 37.8221 1.67785C36.9079 0.763615 35.6679 0.25 34.375 0.25H5.125C3.83207 0.25 2.59209 0.763615 1.67785 1.67785C0.763615 2.59209 0.25 3.83207 0.25 5.125V34.375C0.25 35.6679 0.763615 36.9079 1.67785 37.8221C2.59209 38.7364 3.83207 39.25 5.125 39.25H24.625C25.056 39.25 25.4693 39.0788 25.774 38.774C26.0788 38.4693 26.25 38.056 26.25 37.625C26.25 37.194 26.0788 36.7807 25.774 36.476C25.4693 36.1712 25.056 36 24.625 36Z" fill="white"/>
<path d="M14.875 14.875C17.1187 14.875 18.9375 13.0562 18.9375 10.8125C18.9375 8.56884 17.1187 6.75 14.875 6.75C12.6313 6.75 10.8125 8.56884 10.8125 10.8125C10.8125 13.0562 12.6313 14.875 14.875 14.875Z" fill="white"/>
<path d="M8.84625 20.2213L6.75 22.3338V32.75H32.75V22.3338L25.7787 15.3463C25.6277 15.194 25.448 15.0731 25.2499 14.9906C25.0519 14.9081 24.8395 14.8656 24.625 14.8656C24.4105 14.8656 24.1981 14.9081 24.0001 14.9906C23.802 15.0731 23.6223 15.194 23.4713 15.3463L14.875 23.9588L11.1537 20.2213C11.0027 20.069 10.823 19.9481 10.6249 19.8656C10.4269 19.7831 10.2145 19.7406 10 19.7406C9.78548 19.7406 9.57308 19.7831 9.37506 19.8656C9.17704 19.9481 8.99731 20.069 8.84625 20.2213Z" fill="white"/>
</svg>
