<svg width="12" height="11" viewBox="0 0 12 11" fill="none" xmlns="http://www.w3.org/2000/svg">
<path fill-rule="evenodd" clip-rule="evenodd" d="M6.00078 10.7C7.37991 10.7 8.70255 10.1521 9.67774 9.17694C10.6529 8.20175 11.2008 6.87911 11.2008 5.49999C11.2008 4.12086 10.6529 2.79822 9.67774 1.82303C8.70255 0.847843 7.37991 0.299988 6.00078 0.299988C4.62165 0.299988 3.29901 0.847843 2.32383 1.82303C1.34864 2.79822 0.800781 4.12086 0.800781 5.49999C0.800781 6.87911 1.34864 8.20175 2.32383 9.17694C3.29901 10.1521 4.62165 10.7 6.00078 10.7ZM8.41033 4.65954C8.52873 4.53695 8.59425 4.37275 8.59277 4.20233C8.59129 4.0319 8.52293 3.86887 8.40241 3.74836C8.2819 3.62784 8.11887 3.55948 7.94844 3.558C7.77801 3.55652 7.61382 3.62203 7.49123 3.74044L5.35078 5.88089L4.51033 5.04044C4.38774 4.92203 4.22355 4.85652 4.05312 4.858C3.88269 4.85948 3.71966 4.92784 3.59915 5.04836C3.47863 5.16887 3.41027 5.3319 3.40879 5.50233C3.40731 5.67275 3.47283 5.83695 3.59123 5.95954L4.89123 7.25954C5.01312 7.38139 5.17842 7.44985 5.35078 7.44985C5.52314 7.44985 5.68844 7.38139 5.81033 7.25954L8.41033 4.65954Z" fill="#3772FF"/>
</svg>
