<svg width="44" height="44" viewBox="0 0 44 44" fill="none" xmlns="http://www.w3.org/2000/svg">
<path fill-rule="evenodd" clip-rule="evenodd" d="M4.08287 0.469874C2.45798 0.906785 1.18349 2.19944 0.754849 3.84519C0.538748 4.67489 0.538748 32.8748 0.754849 33.7045C1.19974 35.4126 2.61323 36.7835 4.28714 37.1302C4.63783 37.2029 7.77811 37.2271 14.5192 37.2094C24.1726 37.1839 24.2474 37.1823 24.5108 36.9855C25.0153 36.6089 25.1726 36.3017 25.1726 35.6937C25.1726 35.0858 25.0153 34.7786 24.5108 34.4019C24.2479 34.2055 24.1557 34.2032 14.4541 34.1557C4.75261 34.1081 4.66042 34.1058 4.3975 33.9094C4.25148 33.8004 4.04288 33.5918 3.93387 33.4457C3.73574 33.1803 3.73565 33.1743 3.73565 18.7749C3.73565 4.37544 3.73574 4.36939 3.93387 4.10397C4.04288 3.95795 4.25148 3.74935 4.3975 3.64034C4.66292 3.44221 4.66897 3.44212 19.0684 3.44212C33.4678 3.44212 33.4738 3.44221 33.7393 3.64034C33.8853 3.74935 34.0939 3.95795 34.2029 4.10397C34.3993 4.36689 34.4016 4.45908 34.4492 14.1606C34.4968 23.8621 34.4991 23.9543 34.6955 24.2172C35.0721 24.7217 35.3793 24.8791 35.9873 24.8791C36.5952 24.8791 36.9024 24.7217 37.279 24.2172C37.4758 23.9539 37.4775 23.8791 37.5029 14.2257C37.5206 7.48458 37.4964 4.3443 37.4237 3.99361C37.077 2.3197 35.7062 0.906208 33.998 0.461318C33.1829 0.248967 4.87411 0.257042 4.08287 0.469874ZM13.5522 6.57096C12.9439 6.7238 12.0782 7.23618 11.6579 7.69212C11.4421 7.92629 11.1285 8.40694 10.9613 8.76003C10.6857 9.34152 10.657 9.48889 10.657 10.3204C10.657 11.187 10.6772 11.2794 11.0161 11.965C11.4484 12.84 12.005 13.3849 12.8988 13.8083C13.4795 14.0834 13.6283 14.1125 14.4541 14.1125C15.28 14.1125 15.4288 14.0834 16.0095 13.8083C16.9032 13.3849 17.4598 12.84 17.8922 11.965C18.2315 11.2786 18.2513 11.1878 18.2513 10.3154C18.2513 9.44303 18.2315 9.35219 17.8922 8.66582C17.2427 7.35143 16.0886 6.58018 14.6703 6.5127C14.2606 6.49319 13.7575 6.51943 13.5522 6.57096ZM23.1058 14.2666C22.9737 14.3183 20.9736 16.2506 18.6612 18.5607L14.4568 22.7608L12.5089 20.8235C10.8577 19.1815 10.506 18.8762 10.2004 18.8198C9.43221 18.6783 9.20737 18.801 7.94133 20.0524L6.76374 21.2164V26.1479V31.0795H19.0684H31.373V26.1523V21.2252L27.9364 17.7935C26.0462 15.906 24.3779 14.3165 24.2291 14.2613C23.8988 14.1384 23.4283 14.1407 23.1058 14.2666ZM35.3624 28.1337C35.0063 28.2985 34.6871 28.6377 34.5517 28.9949C34.4889 29.1607 34.4492 30.2107 34.4492 31.7062V34.1468L31.8605 34.1753C29.4198 34.2021 29.2566 34.2151 29.0066 34.4019C28.5022 34.7788 28.3449 35.0859 28.3449 35.6937C28.3449 36.3016 28.5022 36.6087 29.0066 36.9855C29.2566 37.1724 29.4199 37.1854 31.8561 37.2122L34.4404 37.2406L34.4688 39.8249C34.4956 42.261 34.5086 42.4244 34.6955 42.6744C35.0723 43.1788 35.3794 43.3361 35.9873 43.3361C36.5951 43.3361 36.9022 43.1788 37.279 42.6744C37.4659 42.4244 37.4789 42.261 37.5057 39.8249L37.5341 37.2406L40.1184 37.2122C42.5546 37.1854 42.7179 37.1724 42.9679 36.9855C43.4723 36.6087 43.6296 36.3016 43.6296 35.6937C43.6296 35.0859 43.4723 34.7788 42.9679 34.4019C42.7179 34.2151 42.5546 34.2021 40.1184 34.1753L37.5341 34.1469L37.5057 31.5625C37.4789 29.1264 37.4659 28.9631 37.279 28.7131C37.17 28.5671 36.9678 28.3633 36.8296 28.2602C36.5111 28.0224 35.7455 27.9563 35.3624 28.1337Z" fill="url(#paint0_linear_66_19262)"/>
<defs>
<linearGradient id="paint0_linear_66_19262" x1="0.592773" y1="0.306091" x2="52.1889" y2="26.4327" gradientUnits="userSpaceOnUse">
<stop stop-color="#FC466B"/>
<stop offset="1" stop-color="#3F5EFB"/>
</linearGradient>
</defs>
</svg>
