<svg width="44" height="44" viewBox="0 0 44 44" fill="none" xmlns="http://www.w3.org/2000/svg">
<path fill-rule="evenodd" clip-rule="evenodd" d="M28.5376 0.397433C28.3064 0.457809 27.909 0.613376 27.6547 0.743211C27.4003 0.872962 22.9105 3.4716 17.6773 6.51801L8.16234 12.0569H6.1932C4.03898 12.0569 3.68774 12.1108 2.89014 12.5635C1.97516 13.0829 1.19321 14.1902 0.998033 15.2427C0.886025 15.8467 0.884175 39.4081 0.996099 40.0914C1.2535 41.6634 2.58893 42.9989 4.161 43.2563C4.46717 43.3065 11.0882 43.337 21.5161 43.3364C40.0299 43.3353 39.0501 43.3623 39.9839 42.8281C40.8532 42.3307 41.4887 41.5476 41.8361 40.5461C41.9685 40.1642 41.9907 39.8239 41.9913 38.1523C41.992 36.3051 41.9828 36.1915 41.8158 35.966C41.4827 35.5166 41.5208 35.5206 37.4411 35.5192C34.4319 35.5182 33.4958 35.4916 32.9157 35.3904C30.1842 34.9141 28.03 33.1955 26.9622 30.6408C26.504 29.5444 26.4354 29.1557 26.4354 27.6556C26.4354 26.5086 26.4634 26.2134 26.6252 25.6551C27.4238 22.8992 29.4353 20.909 32.2376 20.1023C32.7812 19.9458 33.152 19.9291 37.0878 19.884C41.2434 19.8364 41.3552 19.8308 41.5866 19.6589C42.0013 19.351 42.0533 19.025 42.0079 17.0182C41.9552 14.6832 41.8074 14.1919 40.8766 13.255C40.3105 12.6854 39.7645 12.374 38.9639 12.1643L38.3845 12.0125L35.5453 7.05232C32.6876 2.05947 32.2969 1.46067 31.5725 0.962265C30.7598 0.403067 29.4495 0.159206 28.5376 0.397433ZM30.2179 2.43342C30.5577 2.59471 31.1298 3.1513 31.0407 3.23387C31.0052 3.26667 27.5872 5.26532 23.445 7.67526L15.9138 12.0569H14.0311C12.8885 12.0569 12.1798 12.0266 12.2283 11.9798C12.4072 11.8073 28.5444 2.45974 28.8643 2.34336C29.2604 2.19923 29.8 2.23514 30.2179 2.43342ZM35.0481 10.1322C35.6066 11.1086 36.0637 11.9411 36.0637 11.9822C36.0637 12.0247 34.2476 12.0569 31.8451 12.0569C29.525 12.0569 27.6494 12.0341 27.6774 12.0061C27.7667 11.9168 33.9056 8.35689 33.9703 8.35689C34.0045 8.35689 34.4896 9.15575 35.0481 10.1322ZM33.1377 21.9032C31.0946 22.2518 29.2553 23.8776 28.6066 25.9083C27.6008 29.0569 29.4338 32.4256 32.6546 33.3482C33.3195 33.5387 33.3999 33.5419 37.4932 33.5419H41.6556L42.2022 33.2801C43.1012 32.8495 43.6907 32.1301 43.8827 31.2294C43.9516 30.9062 43.9729 29.7538 43.9537 27.4033L43.9261 24.0397L43.7016 23.5607C43.4151 22.9496 42.8298 22.3643 42.2187 22.0779L41.7397 21.8533L37.6614 21.8403C35.4183 21.8331 33.3826 21.8614 33.1377 21.9032ZM34.9522 25.8941C35.8502 26.2692 36.3508 27.3813 36.0266 28.2804C35.8254 28.8381 35.5288 29.1725 35.0101 29.4263C34.0352 29.9033 32.9456 29.5143 32.4309 28.5055C32.0966 27.8501 32.2785 26.7758 32.8059 26.2909C33.363 25.7787 34.273 25.6104 34.9522 25.8941Z" fill="url(#paint0_linear_66_19236)"/>
<defs>
<linearGradient id="paint0_linear_66_19236" x1="0.913086" y1="0.30645" x2="52.5167" y2="26.4432" gradientUnits="userSpaceOnUse">
<stop stop-color="#FC466B"/>
<stop offset="1" stop-color="#3F5EFB"/>
</linearGradient>
</defs>
</svg>
