<svg width="13" height="16" viewBox="0 0 13 16" fill="none" xmlns="http://www.w3.org/2000/svg">
<path d="M1.35381 2.16092L1.35156 3.75317V11.6312C1.35156 12.2776 1.60837 12.8976 2.06549 13.3547C2.52261 13.8119 3.1426 14.0687 3.78906 14.0687H10.2511C10.1346 14.3977 9.91905 14.6826 9.63404 14.884C9.34904 15.0855 9.00859 15.1937 8.65956 15.1937H3.78906C2.84423 15.1937 1.93809 14.8183 1.26999 14.1502C0.601896 13.4821 0.226563 12.576 0.226562 11.6312V3.75317C0.226562 3.01817 0.696812 2.39192 1.35381 2.16092ZM10.5391 0.190674C10.7607 0.190674 10.9801 0.234322 11.1848 0.319127C11.3896 0.403932 11.5756 0.528232 11.7323 0.684931C11.889 0.84163 12.0133 1.02766 12.0981 1.2324C12.1829 1.43713 12.2266 1.65657 12.2266 1.87817V11.6282C12.2266 11.8498 12.1829 12.0692 12.0981 12.274C12.0133 12.4787 11.889 12.6647 11.7323 12.8214C11.5756 12.9781 11.3896 13.1024 11.1848 13.1872C10.9801 13.272 10.7607 13.3157 10.5391 13.3157H3.78906C3.34151 13.3157 2.91229 13.1379 2.59582 12.8214C2.27935 12.5049 2.10156 12.0757 2.10156 11.6282V1.87817C2.10156 1.43062 2.27935 1.0014 2.59582 0.684931C2.91229 0.368463 3.34151 0.190674 3.78906 0.190674H10.5391ZM10.5391 1.31567H3.78906C3.63988 1.31567 3.4968 1.37494 3.39132 1.48043C3.28583 1.58592 3.22656 1.72899 3.22656 1.87817V11.6282C3.22656 11.9387 3.47856 12.1907 3.78906 12.1907H10.5391C10.6882 12.1907 10.8313 12.1314 10.9368 12.0259C11.0423 11.9204 11.1016 11.7774 11.1016 11.6282V1.87817C11.1016 1.72899 11.0423 1.58592 10.9368 1.48043C10.8313 1.37494 10.6882 1.31567 10.5391 1.31567Z" fill="white"/>
</svg>
