<svg width="44" height="44" viewBox="0 0 44 44" fill="none" xmlns="http://www.w3.org/2000/svg">
<path d="M0.489746 22.0958C0.489746 10.2875 10.0623 0.714935 21.8706 0.714935V0.714935C33.6789 0.714935 43.2514 10.2875 43.2514 22.0958V22.0958C43.2514 33.9041 33.6789 43.4766 21.8706 43.4766V43.4766C10.0623 43.4766 0.489746 33.9041 0.489746 22.0958V22.0958Z" fill="black"/>
<path d="M32.2438 12.2859C30.3359 11.3835 28.29 10.7187 26.151 10.3379C26.112 10.3306 26.0731 10.3489 26.053 10.3856C25.7899 10.868 25.4985 11.4974 25.2944 11.992C22.9936 11.637 20.7047 11.637 18.4512 11.992C18.247 11.4864 17.945 10.868 17.6807 10.3856C17.6606 10.3501 17.6217 10.3318 17.5828 10.3379C15.4449 10.7175 13.399 11.3823 11.49 12.2859C11.4735 12.2932 11.4593 12.3055 11.4499 12.3214C7.56931 18.2976 6.50625 24.1269 7.02775 29.884C7.03011 29.9121 7.04545 29.9391 7.06669 29.9562C9.62699 31.8944 12.1071 33.071 14.5411 33.8509C14.5801 33.8632 14.6213 33.8485 14.6461 33.8154C15.2219 33.0049 15.7351 32.1503 16.1752 31.2516C16.2012 31.199 16.1764 31.1365 16.1233 31.1157C15.3092 30.7973 14.534 30.4092 13.7883 29.9685C13.7294 29.933 13.7246 29.846 13.7789 29.8044C13.9358 29.6831 14.0928 29.557 14.2426 29.4297C14.2697 29.4064 14.3075 29.4015 14.3394 29.4162C19.2381 31.7218 24.5416 31.7218 29.3826 29.4162C29.4144 29.4003 29.4522 29.4052 29.4805 29.4285C29.6304 29.5558 29.7873 29.6831 29.9454 29.8044C29.9997 29.846 29.9961 29.933 29.9371 29.9685C29.1915 30.4178 28.4163 30.7973 27.601 31.1145C27.5479 31.1353 27.5243 31.199 27.5503 31.2516C27.9998 32.1491 28.513 33.0037 29.0782 33.8142C29.1018 33.8485 29.1442 33.8632 29.1832 33.8509C31.629 33.071 34.1091 31.8944 36.6694 29.9562C36.6918 29.9391 36.706 29.9134 36.7084 29.8852C37.3325 23.2294 35.663 17.4479 32.2827 12.3226C32.2744 12.3055 32.2603 12.2932 32.2438 12.2859ZM16.9068 26.3785C15.4319 26.3785 14.2166 24.9828 14.2166 23.2686C14.2166 21.5545 15.4083 20.1587 16.9068 20.1587C18.4169 20.1587 19.6204 21.5667 19.5968 23.2686C19.5968 24.9828 18.4051 26.3785 16.9068 26.3785ZM26.853 26.3785C25.3781 26.3785 24.1629 24.9828 24.1629 23.2686C24.1629 21.5545 25.3545 20.1587 26.853 20.1587C28.3632 20.1587 29.5666 21.5667 29.5431 23.2686C29.5431 24.9828 28.3632 26.3785 26.853 26.3785Z" fill="white"/>
</svg>
