<svg width="44" height="44" viewBox="0 0 44 44" fill="none" xmlns="http://www.w3.org/2000/svg">
<g clip-path="url(#clip0_66_8953)">
<path d="M0.790527 22.0958C0.790527 10.2875 10.3631 0.714935 22.1714 0.714935V0.714935C33.9797 0.714935 43.5522 10.2875 43.5522 22.0958V22.0958C43.5522 33.9041 33.9797 43.4766 22.1714 43.4766V43.4766C10.3631 43.4766 0.790527 33.9041 0.790527 22.0958V22.0958Z" fill="black"/>
<path d="M30.494 28.2762L31.4419 22.0958H25.5121V18.0869C25.5121 16.3956 26.3389 14.7461 28.9948 14.7461H31.6925V9.48443C31.6925 9.48443 29.2454 9.06683 26.9069 9.06683C22.021 9.06683 18.8306 12.0276 18.8306 17.3853V22.0958H13.4019V28.2762H18.8306V43.2177C19.9205 43.3889 21.0355 43.4766 22.1713 43.4766C23.3072 43.4766 24.4222 43.3889 25.5121 43.2177V28.2762H30.494Z" fill="white"/>
</g>
<defs>
<clipPath id="clip0_66_8953">
<path d="M0.790527 22.0958C0.790527 10.2875 10.3631 0.714935 22.1714 0.714935V0.714935C33.9797 0.714935 43.5522 10.2875 43.5522 22.0958V22.0958C43.5522 33.9041 33.9797 43.4766 22.1714 43.4766V43.4766C10.3631 43.4766 0.790527 33.9041 0.790527 22.0958V22.0958Z" fill="white"/>
</clipPath>
</defs>
</svg>
