<svg width="1920" height="323" viewBox="0 0 1920 323" fill="none" xmlns="http://www.w3.org/2000/svg">
<path d="M0 0.14917L32 21.6389C64 43.5322 128 85.9064 192 97.0044C256 108.102 320 85.9064 384 86.2091C448 85.9064 512 108.102 576 107.8C640 108.102 704 85.9064 768 102.352C832 118.191 896 172.673 960 193.86C1024 215.047 1088 204.958 1152 199.207C1216 193.86 1280 193.86 1344 172.37C1408 150.477 1472 108.102 1536 97.0044C1600 85.9064 1664 108.102 1728 113.147C1792 118.191 1856 108.102 1888 102.352L1920 97.0044V323H1888C1856 323 1792 323 1728 323C1664 323 1600 323 1536 323C1472 323 1408 323 1344 323C1280 323 1216 323 1152 323C1088 323 1024 323 960 323C896 323 832 323 768 323C704 323 640 323 576 323C512 323 448 323 384 323C320 323 256 323 192 323C128 323 64 323 32 323H0V0.14917Z" fill="#7A0BC0"/>
</svg>
