<svg width="66" height="66" viewBox="0 0 66 66" fill="none" xmlns="http://www.w3.org/2000/svg">
<circle cx="33" cy="33" r="32" stroke="url(#paint0_linear_66_14164)" stroke-width="2"/>
<path d="M32.3877 25.6927C31.2573 23.7521 30.2234 22.4324 29.2528 21.7194C28.0547 20.8383 26.8264 20.8311 25.8645 21.7741C24.9501 22.6696 24.8651 23.8009 25.5664 24.8704C25.7493 25.1479 25.984 25.4224 26.2691 25.6927H22.0355C20.8979 25.6927 20.08 26.6515 20.08 27.6089C20.08 28.7244 21.0592 29.5265 22.0355 29.5265H32.1414V26.9706H33.7715V29.5265H44.0445C45.1821 29.5265 46 28.5677 46 27.6089C46 26.4948 45.0208 25.6927 44.0445 25.6927H39.857C40.1334 25.4081 40.3566 25.1177 40.5222 24.8216C41.1155 23.7578 40.947 22.6538 40.0485 21.7741C39.0866 20.8311 37.8597 20.8397 36.6616 21.7194C35.6896 22.4324 34.6557 23.7535 33.5267 25.6927H32.3877ZM30.4926 25.6927H29.0238C27.9928 25.1091 27.2771 24.524 26.9358 24.0051C26.6392 23.5508 26.6622 23.2518 27.0165 22.9025C27.3635 22.5632 27.6861 22.5647 28.2736 22.9974C28.9115 23.4646 29.6589 24.3659 30.4926 25.6927ZM35.4203 25.6927C36.2555 24.3659 37.0014 23.4646 37.6379 22.9974C38.2269 22.5661 38.5494 22.5632 38.8965 22.9025C39.2853 23.2849 39.3371 23.6169 39.0923 24.0539C38.8101 24.5599 38.1606 25.1292 37.1771 25.6927H35.4203ZM32.1414 31.125H21.5488V41.5066C21.5373 42.5689 21.9635 43.591 22.7296 44.3414C23.4957 45.0918 24.5397 45.5101 25.624 45.5H32.1429L32.1414 31.125ZM33.7715 31.125V45.5H40.2918C41.3719 45.5118 42.4124 45.095 43.1848 44.3414C43.5627 43.9726 43.8621 43.5314 44.065 43.0443C44.2679 42.5572 44.3701 42.0342 44.3656 41.5066V31.1236L33.7715 31.125Z" fill="url(#paint1_linear_66_14164)"/>
<defs>
<linearGradient id="paint0_linear_66_14164" x1="67.3514" y1="32.9407" x2="-3.57464" y2="32.9407" gradientUnits="userSpaceOnUse">
<stop stop-color="#26E4BA"/>
<stop offset="0.174884" stop-color="#3E899A"/>
<stop offset="0.370705" stop-color="#4B76C0"/>
<stop offset="0.599746" stop-color="#6E5DCE"/>
<stop offset="0.772838" stop-color="#8C4FD3"/>
<stop offset="0.960329" stop-color="#A749DF"/>
</linearGradient>
<linearGradient id="paint1_linear_66_14164" x1="46.7371" y1="33.9587" x2="8.0502" y2="33.9587" gradientUnits="userSpaceOnUse">
<stop stop-color="#26E4BA"/>
<stop offset="0.174884" stop-color="#3E899A"/>
<stop offset="0.370705" stop-color="#4B76C0"/>
<stop offset="0.599746" stop-color="#6E5DCE"/>
<stop offset="0.772838" stop-color="#8C4FD3"/>
<stop offset="0.960329" stop-color="#A749DF"/>
</linearGradient>
</defs>
</svg>
