<svg width="38" height="44" viewBox="0 0 38 44" fill="none" xmlns="http://www.w3.org/2000/svg">
<path fill-rule="evenodd" clip-rule="evenodd" d="M22.8717 0.901145C22.31 1.20028 22.2326 1.48621 22.2326 3.26282C22.2326 4.64537 22.2498 4.83987 22.3984 5.13352C22.5848 5.50199 23.0592 5.79573 23.4678 5.79573C23.8764 5.79573 24.3508 5.50199 24.5372 5.13352C24.6857 4.83987 24.7029 4.64537 24.7029 3.26282C24.7029 1.88026 24.6857 1.68577 24.5372 1.39211C24.2333 0.791441 23.4895 0.572199 22.8717 0.901145ZM15.7287 3.72173C15.3614 3.8086 14.9307 4.28022 14.8571 4.67593C14.7488 5.25784 14.905 5.51495 16.0749 6.68142C17.252 7.85486 17.5004 8.00243 18.0781 7.87097C18.8118 7.70413 19.245 6.79884 18.9044 6.14452C18.7084 5.76807 16.5984 3.71957 16.4066 3.71957C16.3122 3.71957 16.1855 3.70479 16.1253 3.68668C16.0649 3.66866 15.8865 3.68436 15.7287 3.72173ZM30.5586 3.72007C30.3545 3.76857 29.9942 4.07243 29.2149 4.85332C28.6292 5.44012 28.097 6.0212 28.0322 6.14452C27.6895 6.79677 28.1232 7.70397 28.8575 7.87097C29.4351 8.00243 29.6836 7.85486 30.8606 6.68142C32.0357 5.50997 32.1869 5.25917 32.0766 4.66597C32.0086 4.30023 31.4858 3.71957 31.2246 3.71957C31.1324 3.71957 31.0076 3.70479 30.9473 3.68668C30.887 3.66866 30.7121 3.68361 30.5586 3.72007ZM22.587 8.61075C22.4423 8.70243 22.2635 8.87043 22.1897 8.98404C22.1158 9.09765 21.9115 9.90702 21.7356 10.7826C21.2088 13.4043 20.8369 14.5155 20.1198 15.6111C19.4233 16.675 18.5748 17.2912 15.7685 18.7708C14.7722 19.2962 13.5605 19.9457 13.0758 20.2142L12.4896 20.5391C12.313 20.637 12.2178 20.8359 12.2523 21.0347C12.2841 21.2174 12.3101 25.6832 12.3101 30.9588V39.8761C12.3101 40.3233 12.2434 40.768 12.1124 41.1955C12.0037 41.5503 11.9312 41.8572 11.9514 41.8775C11.9715 41.8979 12.6349 42.0813 13.4254 42.2853C15.0688 42.7092 17.0599 43.0386 18.7329 43.1632C20.4513 43.2911 32.8639 43.2783 33.2984 43.1481C33.5021 43.0871 33.7861 42.8965 34.0102 42.6706C34.7754 41.899 34.7754 40.8632 34.0102 40.0915C33.5151 39.5922 33.2098 39.5125 31.7923 39.5125C30.4144 39.5125 30.0895 39.4041 29.8094 38.8503C29.601 38.4383 29.5993 38.0988 29.8035 37.6949C30.1228 37.0639 30.1041 37.0677 33.0609 37.0211C35.5846 36.9814 35.7105 36.9718 36.0379 36.7952C36.6367 36.4723 37.0547 35.797 37.0547 35.1526C37.0547 34.4337 36.4377 33.5859 35.7688 33.3855C35.5356 33.3157 34.6806 33.2841 33.0275 33.2841C30.7824 33.2841 30.6039 33.2731 30.3002 33.1169C29.9349 32.9289 29.6436 32.4504 29.6436 32.0384C29.6436 31.6941 29.9114 31.1859 30.1947 30.9922C30.4066 30.8474 30.6464 30.8307 33.0609 30.7927C35.5846 30.7529 35.7105 30.7433 36.0379 30.5667C36.6367 30.2438 37.0547 29.5685 37.0547 28.9241C37.0547 28.2052 36.4377 27.3575 35.7688 27.1571C35.5356 27.0872 34.6806 27.0556 33.0275 27.0556C30.7824 27.0556 30.6039 27.0446 30.3002 26.8884C29.9349 26.7004 29.6436 26.222 29.6436 25.8099C29.6436 25.4657 29.9114 24.9574 30.1947 24.7638C30.4066 24.6189 30.6464 24.6022 33.0609 24.5642C35.5846 24.5244 35.7105 24.5149 36.0379 24.3382C36.6367 24.0153 37.0547 23.34 37.0547 22.6957C37.0547 21.9767 36.4377 21.129 35.7688 20.9286C35.517 20.8532 34.0635 20.8271 30.1175 20.8271H25.5786C25.2028 20.8271 24.9413 20.4535 25.07 20.1005C25.2158 19.7008 25.5308 18.9067 25.7702 18.3357C26.8512 15.757 27.1195 14.7668 27.1203 13.3529C27.1208 12.1621 26.9844 11.6358 26.4281 10.6834C25.5536 9.18651 23.4609 8.05716 22.587 8.61075ZM0.63859 18.507C0.450432 18.6072 0.266309 18.7982 0.165107 18.9983C0.00157047 19.3216 -0.000488281 19.4686 -0.000488281 30.7927C-0.000488281 42.1213 0.00148804 42.2636 0.165272 42.5874C0.271991 42.7984 0.446891 42.9748 0.656129 43.0824C0.962287 43.24 1.13752 43.2496 3.69053 43.2496C5.18904 43.2496 6.59796 43.2117 6.8431 43.1648C8.32202 42.882 9.51634 41.6775 9.79681 40.186C9.91185 39.5743 9.91185 22.011 9.79681 21.3994C9.51634 19.9079 8.32202 18.7034 6.8431 18.4205C6.59483 18.373 5.20074 18.3373 3.67324 18.3394C1.12129 18.3429 0.926714 18.3536 0.63859 18.507ZM6.75392 35.9426C7.11929 36.1306 7.41054 36.6091 7.41054 37.0211C7.41054 37.4332 7.11929 37.9116 6.75392 38.0997C6.57524 38.1916 6.31486 38.2668 6.17537 38.2668C5.54881 38.2668 4.9402 37.653 4.9402 37.0211C4.9402 36.6218 5.23162 36.1318 5.57928 35.9467C5.97659 35.7352 6.34821 35.7339 6.75392 35.9426Z" fill="url(#paint0_linear_66_19266)"/>
<defs>
<linearGradient id="paint0_linear_66_19266" x1="-0.000488281" y1="0.74826" x2="46.7144" y2="21.3672" gradientUnits="userSpaceOnUse">
<stop stop-color="#FC466B"/>
<stop offset="1" stop-color="#3F5EFB"/>
</linearGradient>
</defs>
</svg>
