<svg width="44" height="44" viewBox="0 0 44 44" fill="none" xmlns="http://www.w3.org/2000/svg">
<path fill-rule="evenodd" clip-rule="evenodd" d="M13.1723 0.465607C11.6974 0.776652 10.5355 1.42471 9.40545 2.56662C8.63956 3.34049 8.2954 3.85568 7.84955 4.89555C7.35016 6.0604 7.30436 6.48583 7.30436 9.96146V13.0746H5.28462C3.65173 13.0746 3.20521 13.0995 2.95358 13.2047C2.55496 13.3712 2.28745 13.6228 2.08104 14.0254C1.93077 14.3185 1.85564 15.4361 1.2022 27.0942C0.809208 34.1058 0.508415 40.0695 0.533712 40.3468C0.595653 41.0254 1.04663 41.9353 1.55199 42.4012C1.76394 42.5966 2.19005 42.8761 2.49874 43.0223L3.06015 43.2883L10.2744 43.3116L17.4886 43.3349L17.2351 42.8914C16.8199 42.1645 16.5387 41.2032 16.4922 40.3509C16.4342 39.2878 17.4226 25.315 17.6043 24.631C17.6778 24.3537 17.8546 23.9082 17.9972 23.6407C18.3029 23.0672 19.1525 22.2403 19.7446 21.9403C20.5713 21.5214 20.966 21.4816 24.3022 21.4802L27.3908 21.479L27.3922 21.2479C27.3928 21.1208 27.3152 19.5607 27.2195 17.7811C27.0294 14.2444 26.9918 14.023 26.501 13.5462C26.0712 13.1289 25.7646 13.0746 23.8378 13.0746H22.1111L22.0756 9.81791C22.043 6.82822 22.0255 6.50818 21.8625 5.91425C20.7895 2.00487 17.0351 -0.349029 13.1723 0.465607ZM15.5882 2.91111C17.2722 3.21443 18.8088 4.61132 19.3723 6.3511C19.502 6.75183 19.5263 7.2297 19.5547 9.94397L19.5874 13.0746H20.8487H22.1099L22.082 14.5395C22.0567 15.8628 22.0373 16.0266 21.8807 16.2362C21.2913 17.0248 20.2782 17.0443 19.7655 16.2768C19.5855 16.0074 19.5747 15.9091 19.5747 14.5329V13.0746H14.7072H9.83954L9.81164 14.5395C9.78634 15.8628 9.76693 16.0266 9.61035 16.2362C9.02095 17.0248 8.00781 17.0443 7.49514 16.2768C7.31512 16.0074 7.30436 15.9091 7.30436 14.5329V13.0746H8.56502H9.82567V10.0952C9.82567 6.89033 9.8566 6.57458 10.2578 5.68422C10.7004 4.70225 11.5537 3.81601 12.542 3.31175C13.3685 2.8901 14.5842 2.73025 15.5882 2.91111ZM20.9615 24.1584C20.5544 24.3471 20.2984 24.6133 20.1251 25.028C19.9696 25.4004 18.9489 39.3304 19.012 40.2207C19.1149 41.6721 20.0989 42.8476 21.5167 43.2126C21.9162 43.3155 23.4287 43.3304 31.4758 43.3111L40.9639 43.2883L41.5253 43.0223C41.834 42.8761 42.2591 42.5974 42.4699 42.4031C42.9357 41.9737 43.4101 41.0628 43.4854 40.4529C43.5181 40.1881 43.3333 37.0599 43.0248 32.6568C42.4452 24.3863 42.5093 24.8137 41.7715 24.2952L41.4117 24.0423L31.3547 24.0224C21.7139 24.0034 21.2837 24.009 20.9615 24.1584ZM28.0964 27.9727C28.6332 28.2805 28.7355 28.5744 28.7355 29.8094C28.7355 31.1899 28.8623 31.6118 29.4569 32.21C30.2092 32.9667 31.2746 33.1142 32.2068 32.5908C33.1224 32.0765 33.442 31.3497 33.442 29.7813C33.442 28.6393 33.5332 28.3286 33.9577 28.0259C34.332 27.7589 35.0046 27.7452 35.3426 27.9976C35.8665 28.3887 35.919 28.5397 35.9481 29.7421C35.9957 31.7088 35.5966 32.8683 34.4897 33.9791C33.0012 35.4729 30.8958 35.8352 28.9965 34.9243C28.4387 34.6567 28.1568 34.45 27.6495 33.9365C26.5673 32.8409 26.2182 31.8659 26.2156 29.9309C26.2145 29.0152 26.2406 28.7894 26.3816 28.4981C26.7001 27.8402 27.4596 27.6076 28.0964 27.9727Z" fill="url(#paint0_linear_66_19245)"/>
<defs>
<linearGradient id="paint0_linear_66_19245" x1="0.532227" y1="0.304916" x2="52.0716" y2="26.3543" gradientUnits="userSpaceOnUse">
<stop stop-color="#FC466B"/>
<stop offset="1" stop-color="#3F5EFB"/>
</linearGradient>
</defs>
</svg>
