<svg width="40" height="40" viewBox="0 0 40 40" fill="none" xmlns="http://www.w3.org/2000/svg">
<path fill-rule="evenodd" clip-rule="evenodd" d="M20 40C8.95432 40 0 31.0457 0 20C0 8.9543 8.95432 0 20 0C31.0457 0 40 8.9543 40 20C40 31.0457 31.0457 40 20 40ZM12.125 14.625C12.25 14.75 12.375 15 12.375 15.25V24C12.5 24.375 12.375 24.625 12.125 24.875L10 27.375V27.75H15.875V27.375L13.75 24.875C13.625 24.625 13.5 24.375 13.5 24V16.375L18.75 27.75H19.25L23.75 16.375V25.5C23.75 25.75 23.75 25.875 23.625 26L22 27.625V28H29.875V27.625L28.375 26.125C28.25 26 28.25 25.75 28.25 25.625V14.375C28.125 14.125 28.25 14 28.375 13.875L30 12.375V12H24.5L20.5 21.875L16 12H10.25V12.375L12.125 14.625Z" fill="white"/>
</svg>
