<svg width="44" height="44" viewBox="0 0 44 44" fill="#FFFFFF" xmlns="http://www.w3.org/2000/svg">
<path fill-rule="evenodd" clip-rule="evenodd" d="M22.2202 43.4766C10.4119 43.4766 0.839355 33.9041 0.839355 22.0958C0.839355 10.2875 10.4119 0.714935 22.2202 0.714935C34.0285 0.714935 43.601 10.2875 43.601 22.0958C43.601 33.9041 34.0285 43.4766 22.2202 43.4766ZM13.8015 16.3497C13.9351 16.4833 14.0687 16.7506 14.0687 17.0178V26.372C14.2024 26.7728 14.0687 27.0401 13.8015 27.3074L11.5298 29.98V30.3809H17.8104V29.98L15.5387 27.3074C15.405 27.0401 15.2714 26.7728 15.2714 26.372V18.2205L20.8839 30.3809H21.4184L26.2291 18.2205V27.9755C26.2291 28.2428 26.2291 28.3764 26.0955 28.51L24.3583 30.2472V30.6481H32.777V30.2472L31.1734 28.6437C31.0398 28.51 31.0398 28.2428 31.0398 28.1091V16.0824C30.9062 15.8152 31.0398 15.6815 31.1734 15.5479L32.9106 13.9443V13.5435H27.0309L22.7547 24.1002L17.944 13.5435H11.7971V13.9443L13.8015 16.3497Z" fill="black"/>
</svg>
