<svg width="20" height="20" viewBox="0 0 20 20" fill="none" xmlns="http://www.w3.org/2000/svg">
<path d="M12.1484 16.3641H11.9808C11.6429 16.3306 11.3245 16.1902 11.0718 15.9634C10.8191 15.7365 10.6453 15.4351 10.5757 15.1027L8.43605 5.18704L6.23257 10.2966C6.17025 10.4394 6.06749 10.5608 5.93698 10.6459C5.80646 10.7311 5.65389 10.7761 5.49808 10.7756H3.10299C2.89125 10.7756 2.68818 10.6915 2.53846 10.5417C2.38874 10.392 2.30463 10.189 2.30463 9.97722C2.30463 9.76548 2.38874 9.56241 2.53846 9.41269C2.68818 9.26297 2.89125 9.17885 3.10299 9.17885H4.97116L6.97505 4.55633C7.10994 4.24614 7.33986 3.9868 7.63166 3.8157C7.92345 3.6446 8.26204 3.57059 8.59861 3.60434C8.93517 3.63808 9.25233 3.77784 9.50435 4.00346C9.75636 4.22908 9.93022 4.52891 10.0008 4.85971L12.1405 14.7674L14.3439 9.67384C14.4038 9.52804 14.5055 9.40324 14.6362 9.31515C14.767 9.22706 14.9208 9.17964 15.0784 9.17885H17.4735C17.6853 9.17885 17.8883 9.26297 18.038 9.41269C18.1878 9.56241 18.2719 9.76548 18.2719 9.97722C18.2719 10.189 18.1878 10.392 18.038 10.5417C17.8883 10.6915 17.6853 10.7756 17.4735 10.7756H15.6054L13.6015 15.3981C13.4791 15.6827 13.2766 15.9256 13.0186 16.0971C12.7606 16.2687 12.4582 16.3614 12.1484 16.3641Z" fill="white"/>
</svg>
