<svg width="58" height="59" viewBox="0 0 58 59" fill="none" xmlns="http://www.w3.org/2000/svg">
<g filter="url(#filter0_b_66_34601)">
<rect x="0.347656" y="0.637695" width="57.4821" height="57.4821" rx="10.6448" fill="#fff"/>
</g>
<path d="M43.8919 38.6927H40.5986V35.3994C40.5986 35.1083 40.483 34.8291 40.2771 34.6232C40.0712 34.4173 39.792 34.3017 39.5009 34.3017C39.2097 34.3017 38.9305 34.4173 38.7247 34.6232C38.5188 34.8291 38.4031 35.1083 38.4031 35.3994V38.6927H35.1099C34.8188 38.6927 34.5395 38.8083 34.3337 39.0142C34.1278 39.2201 34.0121 39.4993 34.0121 39.7904C34.0121 40.0816 34.1278 40.3608 34.3337 40.5666C34.5395 40.7725 34.8188 40.8882 35.1099 40.8882H38.4031V44.1814C38.4031 44.4725 38.5188 44.7518 38.7247 44.9576C38.9305 45.1635 39.2097 45.2792 39.5009 45.2792C39.792 45.2792 40.0712 45.1635 40.2771 44.9576C40.483 44.7518 40.5986 44.4725 40.5986 44.1814V40.8882H43.8919C44.183 40.8882 44.4622 40.7725 44.6681 40.5666C44.874 40.3608 44.9896 40.0816 44.9896 39.7904C44.9896 39.4993 44.874 39.2201 44.6681 39.0142C44.4622 38.8083 44.183 38.6927 43.8919 38.6927Z" fill="url(#paint0_linear_66_34601)"/>
<path d="M30.7187 38.6925H17.5457C17.2545 38.6925 16.9753 38.5768 16.7695 38.3709C16.5636 38.1651 16.4479 37.8859 16.4479 37.5947V17.8352C16.4479 17.5441 16.5636 17.2649 16.7695 17.059C16.9753 16.8531 17.2545 16.7375 17.5457 16.7375H37.3052C37.5963 16.7375 37.8755 16.8531 38.0814 17.059C38.2873 17.2649 38.4029 17.5441 38.4029 17.8352V31.0082C38.4029 31.2994 38.5186 31.5786 38.7244 31.7845C38.9303 31.9903 39.2095 32.106 39.5007 32.106C39.7918 32.106 40.071 31.9903 40.2769 31.7845C40.4828 31.5786 40.5984 31.2994 40.5984 31.0082V17.8352C40.5984 16.9618 40.2514 16.1242 39.6338 15.5066C39.0162 14.889 38.1786 14.542 37.3052 14.542H17.5457C16.6723 14.542 15.8346 14.889 15.217 15.5066C14.5994 16.1242 14.2524 16.9618 14.2524 17.8352V37.5947C14.2524 38.4681 14.5994 39.3058 15.217 39.9234C15.8346 40.541 16.6723 40.888 17.5457 40.888H30.7187C31.0098 40.888 31.289 40.7723 31.4949 40.5664C31.7008 40.3606 31.8164 40.0814 31.8164 39.7902C31.8164 39.4991 31.7008 39.2199 31.4949 39.014C31.289 38.8081 31.0098 38.6925 30.7187 38.6925Z" fill="url(#paint1_linear_66_34601)"/>
<path d="M24.1321 24.4219C25.6477 24.4219 26.8764 23.1932 26.8764 21.6775C26.8764 20.1618 25.6477 18.9331 24.1321 18.9331C22.6164 18.9331 21.3877 20.1618 21.3877 21.6775C21.3877 23.1932 22.6164 24.4219 24.1321 24.4219Z" fill="url(#paint2_linear_66_34601)"/>
<path d="M20.0597 28.0335L18.6436 29.4606V36.4971H36.2075V29.4606L31.4982 24.7402C31.3961 24.6373 31.2747 24.5557 31.141 24.5C31.0072 24.4442 30.8637 24.4155 30.7188 24.4155C30.5739 24.4155 30.4304 24.4442 30.2966 24.5C30.1629 24.5557 30.0414 24.6373 29.9394 24.7402L24.1323 30.5583L21.6185 28.0335C21.5164 27.9306 21.395 27.8489 21.2612 27.7932C21.1275 27.7375 20.984 27.7088 20.8391 27.7088C20.6941 27.7088 20.5507 27.7375 20.4169 27.7932C20.2831 27.8489 20.1617 27.9306 20.0597 28.0335Z" fill="url(#paint3_linear_66_34601)"/>
<defs>
<filter id="filter0_b_66_34601" x="-3.91028" y="-3.62024" width="65.998" height="65.998" filterUnits="userSpaceOnUse" color-interpolation-filters="sRGB">
<feFlood flood-opacity="0" result="BackgroundImageFix"/>
<feGaussianBlur in="BackgroundImage" stdDeviation="2.12897"/>
<feComposite in2="SourceAlpha" operator="in" result="effect1_backgroundBlur_66_34601"/>
<feBlend mode="normal" in="SourceGraphic" in2="effect1_backgroundBlur_66_34601" result="shape"/>
</filter>
<linearGradient id="paint0_linear_66_34601" x1="34.0121" y1="34.3017" x2="47.1737" y2="40.9652" gradientUnits="userSpaceOnUse">
<stop stop-color="#FC466B"/>
<stop offset="1" stop-color="#3F5EFB"/>
</linearGradient>
<linearGradient id="paint1_linear_66_34601" x1="14.2524" y1="14.542" x2="45.8402" y2="30.5345" gradientUnits="userSpaceOnUse">
<stop stop-color="#FC466B"/>
<stop offset="1" stop-color="#3F5EFB"/>
</linearGradient>
<linearGradient id="paint2_linear_66_34601" x1="21.3877" y1="18.9331" x2="27.9685" y2="22.2649" gradientUnits="userSpaceOnUse">
<stop stop-color="#FC466B"/>
<stop offset="1" stop-color="#3F5EFB"/>
</linearGradient>
<linearGradient id="paint3_linear_66_34601" x1="18.6436" y1="24.4155" x2="35.8037" y2="37.0459" gradientUnits="userSpaceOnUse">
<stop stop-color="#FC466B"/>
<stop offset="1" stop-color="#3F5EFB"/>
</linearGradient>
</defs>
</svg>
