<svg width="21" height="20" viewBox="0 0 21 20" fill="none" xmlns="http://www.w3.org/2000/svg">
<g clip-path="url(#clip0_66_34543)">
<mask id="path-1-inside-1_66_34543" fill="white">
<path d="M8.04513 9.7712C8.99795 9.7712 9.91175 9.39269 10.5855 8.71895C11.2593 8.0452 11.6378 7.1314 11.6378 6.17857C11.6378 5.22574 11.2593 4.31194 10.5855 3.6382C9.91175 2.96445 8.99795 2.58594 8.04513 2.58594C7.0923 2.58594 6.1785 2.96445 5.50475 3.6382C4.831 4.31194 4.4525 5.22574 4.4525 6.17857C4.4525 7.1314 4.831 8.0452 5.50475 8.71895C6.1785 9.39269 7.0923 9.7712 8.04513 9.7712ZM2.05741 16.9565C2.05741 16.9565 0.859863 16.9565 0.859863 15.7589C0.859863 14.5614 2.05741 10.9687 8.04513 10.9687C14.0328 10.9687 15.2304 14.5614 15.2304 15.7589C15.2304 16.9565 14.0328 16.9565 14.0328 16.9565H2.05741ZM14.0328 4.38225C14.0328 4.22345 14.0959 4.07115 14.2082 3.95886C14.3205 3.84657 14.4728 3.78348 14.6316 3.78348H19.4218C19.5806 3.78348 19.7329 3.84657 19.8452 3.95886C19.9575 4.07115 20.0206 4.22345 20.0206 4.38225C20.0206 4.54106 19.9575 4.69336 19.8452 4.80565C19.7329 4.91794 19.5806 4.98103 19.4218 4.98103H14.6316C14.4728 4.98103 14.3205 4.91794 14.2082 4.80565C14.0959 4.69336 14.0328 4.54106 14.0328 4.38225ZM14.6316 7.37611C14.4728 7.37611 14.3205 7.4392 14.2082 7.55149C14.0959 7.66378 14.0328 7.81608 14.0328 7.97489C14.0328 8.13369 14.0959 8.28599 14.2082 8.39828C14.3205 8.51057 14.4728 8.57366 14.6316 8.57366H19.4218C19.5806 8.57366 19.7329 8.51057 19.8452 8.39828C19.9575 8.28599 20.0206 8.13369 20.0206 7.97489C20.0206 7.81608 19.9575 7.66378 19.8452 7.55149C19.7329 7.4392 19.5806 7.37611 19.4218 7.37611H14.6316ZM17.0267 10.9687C16.8679 10.9687 16.7156 11.0318 16.6033 11.1441C16.491 11.2564 16.4279 11.4087 16.4279 11.5675C16.4279 11.7263 16.491 11.8786 16.6033 11.9909C16.7156 12.1032 16.8679 12.1663 17.0267 12.1663H19.4218C19.5806 12.1663 19.7329 12.1032 19.8452 11.9909C19.9575 11.8786 20.0206 11.7263 20.0206 11.5675C20.0206 11.4087 19.9575 11.2564 19.8452 11.1441C19.7329 11.0318 19.5806 10.9687 19.4218 10.9687H17.0267ZM17.0267 14.5614C16.8679 14.5614 16.7156 14.6245 16.6033 14.7368C16.491 14.849 16.4279 15.0013 16.4279 15.1602C16.4279 15.319 16.491 15.4713 16.6033 15.5835C16.7156 15.6958 16.8679 15.7589 17.0267 15.7589H19.4218C19.5806 15.7589 19.7329 15.6958 19.8452 15.5835C19.9575 15.4713 20.0206 15.319 20.0206 15.1602C20.0206 15.0013 19.9575 14.849 19.8452 14.7368C19.7329 14.6245 19.5806 14.5614 19.4218 14.5614H17.0267Z"/>
</mask>
<path d="M8.04513 9.7712V10.8357V9.7712ZM8.04513 2.58594V1.52145V2.58594ZM4.4525 6.17857H3.38801H4.4525ZM14.6316 3.78348V4.84797V3.78348ZM8.04513 10.8357C9.28027 10.8357 10.4648 10.345 11.3382 9.47165L9.8328 7.96624C9.35868 8.44036 8.71564 8.70672 8.04513 8.70672V10.8357ZM11.3382 9.47165C12.2116 8.59827 12.7022 7.41371 12.7022 6.17857H10.5733C10.5733 6.84908 10.3069 7.49212 9.8328 7.96624L11.3382 9.47165ZM12.7022 6.17857C12.7022 4.94343 12.2116 3.75887 11.3382 2.88549L9.8328 4.3909C10.3069 4.86502 10.5733 5.50806 10.5733 6.17857H12.7022ZM11.3382 2.88549C10.4648 2.01211 9.28027 1.52145 8.04513 1.52145V3.65042C8.71564 3.65042 9.35868 3.91678 9.8328 4.3909L11.3382 2.88549ZM8.04513 1.52145C6.80998 1.52145 5.62543 2.01211 4.75205 2.88549L6.25746 4.3909C6.73158 3.91678 7.37462 3.65042 8.04513 3.65042V1.52145ZM4.75205 2.88549C3.87867 3.75887 3.38801 4.94343 3.38801 6.17857H5.51698C5.51698 5.50806 5.78334 4.86502 6.25746 4.3909L4.75205 2.88549ZM3.38801 6.17857C3.38801 7.41371 3.87867 8.59827 4.75205 9.47165L6.25746 7.96624C5.78334 7.49212 5.51698 6.84908 5.51698 6.17857H3.38801ZM4.75205 9.47165C5.62543 10.345 6.80998 10.8357 8.04513 10.8357V8.70672C7.37462 8.70672 6.73158 8.44036 6.25746 7.96624L4.75205 9.47165ZM2.05741 16.9565C2.05741 15.892 2.05792 15.892 2.05844 15.892C2.0586 15.892 2.05911 15.892 2.05944 15.892C2.0601 15.892 2.06075 15.892 2.06138 15.892C2.06264 15.892 2.06385 15.892 2.06499 15.892C2.06727 15.892 2.06932 15.8921 2.07114 15.8921C2.07477 15.8921 2.07751 15.8922 2.07942 15.8923C2.0832 15.8924 2.08383 15.8925 2.08179 15.8924C2.07735 15.892 2.06405 15.8909 2.04529 15.8878C2.00274 15.8807 1.96227 15.8685 1.93469 15.8547C1.91127 15.843 1.92024 15.8421 1.93268 15.8608C1.94957 15.8861 1.92435 15.872 1.92435 15.7589H-0.20462C-0.20462 16.2446 -0.0801482 16.6796 0.161276 17.0417C0.398257 17.3972 0.706611 17.6209 0.982584 17.7589C1.25439 17.8948 1.51331 17.9574 1.69529 17.9878C1.78881 18.0033 1.86906 18.0115 1.93011 18.0159C1.96081 18.0181 1.98717 18.0194 2.0085 18.0201C2.01917 18.0204 2.02864 18.0206 2.03681 18.0208C2.04089 18.0208 2.04466 18.0209 2.04809 18.0209C2.04981 18.0209 2.05145 18.0209 2.053 18.0209C2.05377 18.0209 2.05453 18.0209 2.05527 18.021C2.05563 18.021 2.05617 18.021 2.05635 18.021C2.05688 18.021 2.05741 18.021 2.05741 16.9565ZM1.92435 15.7589C1.92435 15.4335 2.11786 14.5094 2.9598 13.6675C3.77055 12.8567 5.27576 12.0332 8.04513 12.0332V9.90426C4.82678 9.90426 2.73935 10.8771 1.4544 12.1621C0.200635 13.4158 -0.20462 14.8868 -0.20462 15.7589H1.92435ZM8.04513 12.0332C10.8145 12.0332 12.3197 12.8567 13.1305 13.6675C13.9724 14.5094 14.1659 15.4335 14.1659 15.7589H16.2949C16.2949 14.8868 15.8896 13.4158 14.6359 12.1621C13.3509 10.8771 11.2635 9.90426 8.04513 9.90426V12.0332ZM14.1659 15.7589C14.1659 15.872 14.1407 15.8861 14.1576 15.8608C14.17 15.8421 14.179 15.843 14.1556 15.8547C14.128 15.8685 14.0875 15.8807 14.045 15.8878C14.0262 15.8909 14.0129 15.892 14.0085 15.8924C14.0064 15.8925 14.0071 15.8924 14.0108 15.8923C14.0127 15.8922 14.0155 15.8921 14.0191 15.8921C14.0209 15.8921 14.023 15.892 14.0253 15.892C14.0264 15.892 14.0276 15.892 14.0289 15.892C14.0295 15.892 14.0302 15.892 14.0308 15.892C14.0311 15.892 14.0317 15.892 14.0318 15.892C14.0323 15.892 14.0328 15.892 14.0328 16.9565C14.0328 18.021 14.0334 18.021 14.0339 18.021C14.0341 18.021 14.0346 18.021 14.035 18.021C14.0357 18.0209 14.0365 18.0209 14.0373 18.0209C14.0388 18.0209 14.0404 18.0209 14.0422 18.0209C14.0456 18.0209 14.0494 18.0208 14.0535 18.0208C14.0616 18.0206 14.0711 18.0204 14.0818 18.0201C14.1031 18.0194 14.1294 18.0181 14.1601 18.0159C14.2212 18.0115 14.3015 18.0033 14.395 17.9878C14.577 17.9574 14.8359 17.8948 15.1077 17.7589C15.3836 17.6209 15.692 17.3972 15.929 17.0417C16.1704 16.6796 16.2949 16.2446 16.2949 15.7589H14.1659ZM14.0328 15.892H2.05741V18.021H14.0328V15.892ZM15.0973 4.38225C15.0973 4.50577 15.0483 4.62422 14.9609 4.71156L13.4555 3.20615C13.1436 3.51808 12.9684 3.94113 12.9684 4.38225H15.0973ZM14.9609 4.71156C14.8736 4.7989 14.7551 4.84797 14.6316 4.84797V2.719C14.1905 2.719 13.7674 2.89423 13.4555 3.20615L14.9609 4.71156ZM14.6316 4.84797H19.4218V2.719H14.6316V4.84797ZM19.4218 4.84797C19.2983 4.84797 19.1798 4.7989 19.0925 4.71156L20.5979 3.20615C20.286 2.89423 19.8629 2.719 19.4218 2.719V4.84797ZM19.0925 4.71156C19.0052 4.62422 18.9561 4.50577 18.9561 4.38225H21.0851C21.0851 3.94113 20.9098 3.51808 20.5979 3.20615L19.0925 4.71156ZM18.9561 4.38225C18.9561 4.25874 19.0052 4.14029 19.0925 4.05295L20.5979 5.55835C20.9098 5.24643 21.0851 4.82338 21.0851 4.38225H18.9561ZM19.0925 4.05295C19.1798 3.96561 19.2983 3.91654 19.4218 3.91654V6.04551C19.8629 6.04551 20.286 5.87027 20.5979 5.55835L19.0925 4.05295ZM19.4218 3.91654H14.6316V6.04551H19.4218V3.91654ZM14.6316 3.91654C14.7551 3.91654 14.8736 3.96561 14.9609 4.05295L13.4555 5.55835C13.7674 5.87027 14.1905 6.04551 14.6316 6.04551V3.91654ZM14.9609 4.05295C15.0483 4.14029 15.0973 4.25874 15.0973 4.38225H12.9684C12.9684 4.82338 13.1436 5.24643 13.4555 5.55835L14.9609 4.05295ZM14.6316 6.31163C14.1905 6.31163 13.7674 6.48687 13.4555 6.79879L14.9609 8.30419C14.8736 8.39153 14.7551 8.4406 14.6316 8.4406V6.31163ZM13.4555 6.79879C13.1436 7.11071 12.9684 7.53377 12.9684 7.97489H15.0973C15.0973 8.0984 15.0483 8.21686 14.9609 8.30419L13.4555 6.79879ZM12.9684 7.97489C12.9684 8.41601 13.1436 8.83906 13.4555 9.15099L14.9609 7.64558C15.0483 7.73292 15.0973 7.85137 15.0973 7.97489H12.9684ZM13.4555 9.15099C13.7674 9.46291 14.1905 9.63814 14.6316 9.63814V7.50918C14.7551 7.50918 14.8736 7.55824 14.9609 7.64558L13.4555 9.15099ZM14.6316 9.63814H19.4218V7.50918H14.6316V9.63814ZM19.4218 9.63814C19.8629 9.63814 20.286 9.46291 20.5979 9.15099L19.0925 7.64558C19.1798 7.55824 19.2983 7.50918 19.4218 7.50918V9.63814ZM20.5979 9.15099C20.9098 8.83906 21.0851 8.41601 21.0851 7.97489H18.9561C18.9561 7.85137 19.0052 7.73292 19.0925 7.64558L20.5979 9.15099ZM21.0851 7.97489C21.0851 7.53377 20.9098 7.11071 20.5979 6.79879L19.0925 8.30419C19.0052 8.21686 18.9561 8.0984 18.9561 7.97489H21.0851ZM20.5979 6.79879C20.286 6.48687 19.8629 6.31163 19.4218 6.31163V8.4406C19.2983 8.4406 19.1798 8.39153 19.0925 8.30419L20.5979 6.79879ZM19.4218 6.31163H14.6316V8.4406H19.4218V6.31163ZM17.0267 9.90426C16.5856 9.90426 16.1625 10.0795 15.8506 10.3914L17.356 11.8968C17.2687 11.9842 17.1502 12.0332 17.0267 12.0332V9.90426ZM15.8506 10.3914C15.5387 10.7033 15.3635 11.1264 15.3635 11.5675H17.4924C17.4924 11.691 17.4434 11.8095 17.356 11.8968L15.8506 10.3914ZM15.3635 11.5675C15.3635 12.0086 15.5387 12.4317 15.8506 12.7436L17.356 11.2382C17.4434 11.3256 17.4924 11.444 17.4924 11.5675H15.3635ZM15.8506 12.7436C16.1625 13.0555 16.5856 13.2308 17.0267 13.2308V11.1018C17.1502 11.1018 17.2687 11.1509 17.356 11.2382L15.8506 12.7436ZM17.0267 13.2308H19.4218V11.1018H17.0267V13.2308ZM19.4218 13.2308C19.8629 13.2308 20.286 13.0555 20.5979 12.7436L19.0925 11.2382C19.1798 11.1509 19.2983 11.1018 19.4218 11.1018V13.2308ZM20.5979 12.7436C20.9098 12.4317 21.0851 12.0086 21.0851 11.5675H18.9561C18.9561 11.444 19.0052 11.3256 19.0925 11.2382L20.5979 12.7436ZM21.0851 11.5675C21.0851 11.1264 20.9098 10.7033 20.5979 10.3914L19.0925 11.8968C19.0052 11.8095 18.9561 11.691 18.9561 11.5675H21.0851ZM20.5979 10.3914C20.286 10.0795 19.8629 9.90426 19.4218 9.90426V12.0332C19.2983 12.0332 19.1798 11.9842 19.0925 11.8968L20.5979 10.3914ZM19.4218 9.90426H17.0267V12.0332H19.4218V9.90426ZM17.0267 13.4969C16.5856 13.4969 16.1625 13.6721 15.8506 13.9841L17.356 15.4895C17.2687 15.5768 17.1502 15.6259 17.0267 15.6259V13.4969ZM15.8506 13.9841C15.5387 14.296 15.3635 14.719 15.3635 15.1602H17.4924C17.4924 15.2837 17.4434 15.4021 17.356 15.4895L15.8506 13.9841ZM15.3635 15.1602C15.3635 15.6013 15.5387 16.0243 15.8506 16.3363L17.356 14.8308C17.4434 14.9182 17.4924 15.0366 17.4924 15.1602H15.3635ZM15.8506 16.3363C16.1625 16.6482 16.5856 16.8234 17.0267 16.8234V14.6944C17.1502 14.6944 17.2687 14.7435 17.356 14.8308L15.8506 16.3363ZM17.0267 16.8234H19.4218V14.6944H17.0267V16.8234ZM19.4218 16.8234C19.8629 16.8234 20.286 16.6482 20.5979 16.3363L19.0925 14.8308C19.1798 14.7435 19.2983 14.6944 19.4218 14.6944V16.8234ZM20.5979 16.3363C20.9098 16.0243 21.0851 15.6013 21.0851 15.1602H18.9561C18.9561 15.0366 19.0052 14.9182 19.0925 14.8308L20.5979 16.3363ZM21.0851 15.1602C21.0851 14.719 20.9098 14.296 20.5979 13.9841L19.0925 15.4895C19.0052 15.4021 18.9561 15.2837 18.9561 15.1602H21.0851ZM20.5979 13.9841C20.286 13.6721 19.8629 13.4969 19.4218 13.4969V15.6259C19.2983 15.6259 19.1798 15.5768 19.0925 15.4895L20.5979 13.9841ZM19.4218 13.4969H17.0267V15.6259H19.4218V13.4969Z" fill="white" mask="url(#path-1-inside-1_66_34543)"/>
</g>
<defs>
<clipPath id="clip0_66_34543">
<rect width="19.1607" height="19.1607" fill="white" transform="translate(0.859375 0.191406)"/>
</clipPath>
</defs>
</svg>
