<svg width="21" height="20" viewBox="0 0 21 20" fill="none" xmlns="http://www.w3.org/2000/svg">
<path d="M14.0327 10.7069H15.2302V11.9044H14.0327V10.7069Z" fill="white"/>
<path d="M17.6251 5.31795H3.25461V3.52163H16.4276V2.32409H3.25461C2.937 2.32409 2.6324 2.45026 2.40782 2.67484C2.18324 2.89942 2.05707 3.20402 2.05707 3.52163V16.0958C2.05707 16.4135 2.18324 16.7181 2.40782 16.9426C2.6324 17.1672 2.937 17.2934 3.25461 17.2934H17.6251C17.9428 17.2934 18.2474 17.1672 18.4719 16.9426C18.6965 16.7181 18.8227 16.4135 18.8227 16.0958V6.51549C18.8227 6.19789 18.6965 5.89329 18.4719 5.6687C18.2474 5.44412 17.9428 5.31795 17.6251 5.31795ZM3.25461 16.0958V6.51549H17.6251V8.31181H12.835C12.5174 8.31181 12.2128 8.43798 11.9882 8.66256C11.7636 8.88715 11.6374 9.19175 11.6374 9.50935V13.102C11.6374 13.4196 11.7636 13.7242 11.9882 13.9488C12.2128 14.1734 12.5174 14.2995 12.835 14.2995H17.6251V16.0958H3.25461ZM17.6251 9.50935V13.102H12.835V9.50935H17.6251Z" fill="white"/>
</svg>
