<svg width="126" height="165" viewBox="0 0 126 165" fill="none" xmlns="http://www.w3.org/2000/svg">
<path d="M0.528717 74.4187V38.2696L32.2347 56.2617L0.528717 74.4187Z" fill="white"/>
<path d="M32.1034 92.4383L32.2347 56.2618L0.528717 74.4188L32.1034 92.4383Z" fill="white"/>
<path d="M0.528717 110.25V74.4186L32.1034 92.4382L0.528717 110.25Z" fill="white"/>
<path d="M31.808 128.572L32.1012 92.4386L62.5186 110.373L31.808 128.572Z" fill="white"/>
<path d="M62.5399 145.825L62.5186 110.372L31.808 128.572L62.5399 145.825Z" fill="white"/>
<path d="M63.9396 146.601L63.9091 110.442L94.5891 128.633L63.9396 146.601Z" fill="white"/>
<path d="M94.582 164.566V128.634L63.9325 146.602L94.582 164.566Z" fill="white"/>
<path d="M31.8103 128.572L32.1034 92.4386L0.528717 110.251L31.8103 128.572Z" fill="white"/>
<path d="M32.2339 18.8214L0.69278 37.0241L32.2339 54.8696V18.8214Z" fill="white"/>
<path d="M32.2304 18.8214L63.3684 37.015L32.2304 54.8696V18.8214Z" fill="white"/>
<path d="M32.2304 18.8209L63.3684 37.0146L63.2982 0.758621L32.2304 18.8209Z" fill="white"/>
<path d="M125.872 38.245L94.5902 56.3165L125.872 74.3879V38.245Z" fill="white"/>
<path d="M94.5902 56.3162L125.872 74.3877L94.5902 92.0195V56.3162Z" fill="white"/>
<path d="M125.872 74.3875L94.5902 92.0192L125.872 110.091V74.3875Z" fill="white"/>
<path d="M94.5902 92.0207L125.872 110.092L94.5902 128.634V92.0207Z" fill="white"/>
<path d="M94.5838 18.8299L63.3695 37.0143L94.5838 54.8324V18.8299Z" fill="white"/>
<path d="M125.206 37.2189L94.5902 54.8324V18.8299L125.206 37.2189Z" fill="white"/>
<path d="M94.5832 18.8301L63.3689 37.0146L63.2986 0.758621L94.5832 18.8301Z" fill="white"/>
<path d="M94.5883 128.634L77.4604 118.483L77.4665 102.241L94.5883 92.0206V128.634Z" fill="white"/>
<path d="M57.536 75.0233C57.535 73.8321 57.8995 72.6692 58.5803 71.6918L49.1415 66.2379L48.8911 82.1932L57.881 77.002C57.6526 76.3673 57.5358 75.6979 57.536 75.0233Z" fill="white"/>
<path d="M62.6744 69.218V58.3226L49.1376 66.2376L58.5764 71.6914C59.0461 71.0132 59.6541 70.442 60.3604 70.0157C61.0668 69.5894 61.8554 69.3175 62.6744 69.218Z" fill="white"/>
<path d="M62.6744 69.218V58.3226L49.1376 66.2376L58.5764 71.6914C59.0461 71.0132 59.6541 70.442 60.3604 70.0157C61.0668 69.5894 61.8554 69.3175 62.6744 69.218Z" fill="white"/>
<path d="M68.1806 71.6774L77.6958 66.1075L63.9208 58.3268V69.2009C64.768 69.2798 65.5879 69.5422 66.3235 69.9699C67.0591 70.3976 67.6928 70.9802 68.1806 71.6774Z" fill="white"/>
<path d="M68.8509 77.1279L68.8998 77.1614L77.9172 82.3679L77.7065 66.1073L68.1913 71.6771C68.7403 72.4617 69.0876 73.3694 69.2026 74.32C69.3176 75.2706 69.1969 76.235 68.8509 77.1279Z" fill="white"/>
<path d="M63.4281 80.9323L63.4434 91.7177L77.4169 83.6256L68.2803 78.239C67.761 79.0575 67.0447 79.7329 66.1971 80.2034C65.3495 80.6739 64.3975 80.9245 63.4281 80.9323Z" fill="white"/>
<path d="M63.3892 80.9326C62.3899 80.9308 61.408 80.671 60.5387 80.1783C59.6693 79.6855 58.9419 78.9766 58.427 78.1202L49.3485 83.4732L63.4411 91.7181L63.435 80.9326H63.3892Z" fill="white"/>
</svg>
