<svg width="211" height="47" viewBox="0 0 211 47" fill="none" xmlns="http://www.w3.org/2000/svg">
<g clip-path="url(#clip0_66_8900)">
<path d="M0.253906 21.6085V11.4691L9.14716 16.5157L0.253906 21.6085Z" fill="white"/>
<path d="M9.11033 26.6629L9.14716 16.5157L0.253906 21.6086L9.11033 26.6629Z" fill="white"/>
<path d="M0.253906 31.6588V21.6084L9.11033 26.6627L0.253906 31.6588Z" fill="white"/>
<path d="M9.02783 36.7981L9.11006 26.6629L17.6419 31.6932L9.02783 36.7981Z" fill="white"/>
<path d="M17.6479 41.6373L17.6419 31.6931L9.02783 36.798L17.6479 41.6373Z" fill="white"/>
<path d="M18.0403 41.8549L18.0317 31.7128L26.6372 36.8151L18.0403 41.8549Z" fill="white"/>
<path d="M26.635 46.8942V36.8155L18.0381 41.8553L26.635 46.8942Z" fill="white"/>
<path d="M9.0281 36.7981L9.11033 26.6629L0.253906 31.659L9.0281 36.7981Z" fill="white"/>
<path d="M9.1473 6.01392L0.300293 11.1196L9.1473 16.1251V6.01392Z" fill="white"/>
<path d="M9.14648 6.01392L17.8804 11.1171L9.14648 16.1251V6.01392Z" fill="white"/>
<path d="M9.14648 6.01383L17.8804 11.117L17.8607 0.94751L9.14648 6.01383Z" fill="white"/>
<path d="M35.4119 11.4621L26.6377 16.531L35.4119 21.5999V11.4621Z" fill="white"/>
<path d="M26.6377 16.5309L35.4119 21.5998L26.6377 26.5453V16.5309Z" fill="white"/>
<path d="M35.4119 21.5998L26.6377 26.5453L35.4119 31.6142V21.5998Z" fill="white"/>
<path d="M26.6377 26.5457L35.4119 31.6145L26.6377 36.8153V26.5457Z" fill="white"/>
<path d="M26.6357 6.01642L17.8804 11.117L26.6357 16.1148V6.01642Z" fill="white"/>
<path d="M35.2252 11.1744L26.6377 16.1148V6.01642L35.2252 11.1744Z" fill="white"/>
<path d="M26.6354 6.0164L17.8801 11.117L17.8604 0.94751L26.6354 6.0164Z" fill="white"/>
<path d="M26.6367 36.8153L21.8325 33.9683L21.8342 29.4124L26.6367 26.5457V36.8153Z" fill="white"/>
<path d="M16.2441 21.778C16.2439 21.4439 16.3461 21.1177 16.5371 20.8435L13.8896 19.3138L13.8193 23.7891L16.3409 22.333C16.2769 22.155 16.2441 21.9672 16.2441 21.778Z" fill="white"/>
<path d="M17.6856 20.1498V17.0937L13.8887 19.3138L16.5362 20.8435C16.6679 20.6533 16.8385 20.4931 17.0366 20.3735C17.2347 20.2539 17.4559 20.1777 17.6856 20.1498Z" fill="white"/>
<path d="M17.6856 20.1498V17.0937L13.8887 19.3138L16.5362 20.8435C16.6679 20.6533 16.8385 20.4931 17.0366 20.3735C17.2347 20.2539 17.4559 20.1777 17.6856 20.1498Z" fill="white"/>
<path d="M19.2295 20.8397L21.8984 19.2774L18.0347 17.095V20.145C18.2723 20.1672 18.5023 20.2408 18.7086 20.3607C18.9149 20.4807 19.0927 20.6441 19.2295 20.8397Z" fill="white"/>
<path d="M19.4179 22.3684L19.4316 22.3778L21.9609 23.8382L21.9018 19.2772L19.2329 20.8395C19.3869 21.0596 19.4843 21.3142 19.5166 21.5808C19.5488 21.8475 19.515 22.118 19.4179 22.3684Z" fill="white"/>
<path d="M17.897 23.4355L17.9013 26.4607L21.8207 24.191L19.258 22.6801C19.1123 22.9097 18.9114 23.0991 18.6737 23.2311C18.4359 23.363 18.1689 23.4333 17.897 23.4355Z" fill="white"/>
<path d="M17.886 23.4356C17.6057 23.4351 17.3303 23.3622 17.0865 23.224C16.8426 23.0858 16.6386 22.8869 16.4942 22.6467L13.9478 24.1482L17.9006 26.4608L17.8989 23.4356H17.886Z" fill="white"/>
<path d="M47.305 19.0577C46.9555 18.8042 46.6383 18.6537 46.3534 18.6063C46.1804 18.5728 46.0057 18.5488 45.83 18.5344C45.259 18.5344 44.8068 18.7168 44.4733 19.0817C44.1283 19.4672 43.8688 19.9214 43.7119 20.4144C43.5327 20.9608 43.4286 21.529 43.4027 22.1035C43.3707 22.7065 43.3547 23.2458 43.3547 23.7214V31.8121H38.834V14.3948H43.3547V15.7755C43.7995 15.2045 44.2994 14.7999 44.8545 14.5618C45.4095 14.3237 45.9091 14.2046 46.3534 14.2046C46.9508 14.1941 47.5459 14.2827 48.1144 14.4667C48.6163 14.6387 49.1089 14.8368 49.5902 15.0603L47.305 19.0577Z" fill="white"/>
<path d="M57.9175 41.9974H53.0636L57.7273 31.5256L49.2563 14.3951H54.1582L60.1068 26.2922L65.3898 14.3951H70.1966L57.9175 41.9974Z" fill="white"/>
<path d="M90.2799 23.2461C90.2872 24.4422 90.069 25.6289 89.6366 26.7441C89.2288 27.8062 88.6142 28.7769 87.8285 29.5998C87.0184 30.4302 86.0464 31.0855 84.9729 31.5252C83.8463 32.0014 82.5692 32.2396 81.1416 32.2396C79.5868 32.2396 78.0639 31.827 76.573 31.0019V41.997H72.0522V14.3468H76.5704V15.7267C77.3652 15.1243 78.1361 14.7117 78.883 14.489C79.6336 14.2667 80.4091 14.1389 81.1913 14.1087C82.3541 14.075 83.5118 14.2772 84.5943 14.7032C85.6754 15.1232 86.6621 15.7542 87.497 16.5592C88.3897 17.4272 89.0969 18.4675 89.5755 19.6169C90.0542 20.7664 90.2944 22.001 90.2816 23.2461H90.2799ZM85.7103 23.2941C85.7103 21.8665 85.2821 20.6528 84.4255 19.653C83.569 18.6531 82.4744 18.1535 81.1416 18.1541C79.7141 18.1541 78.5878 18.6537 77.7627 19.653C76.9376 20.6523 76.5253 21.9133 76.5259 23.4362C76.5259 24.8638 76.9461 25.9901 77.7867 26.8152C78.6272 27.6403 79.7615 28.0529 81.1896 28.0529C82.5224 28.0529 83.609 27.5929 84.4495 26.673C85.2901 25.7531 85.7103 24.6268 85.7103 23.2941Z" fill="white"/>
<path d="M98.9874 18.4875V31.8133H94.4187V18.4875H91.9922V14.3951H94.4187V8.15961H98.9874V14.3951H102.462V18.4884L98.9874 18.4875Z" fill="white"/>
<path d="M123.164 23.0083C123.176 24.255 122.916 25.4892 122.403 26.6254C121.908 27.7184 121.204 28.7044 120.332 29.5282C119.444 30.3636 118.401 31.0184 117.263 31.4562C116.048 31.9233 114.757 32.1575 113.456 32.1465C112.168 32.1552 110.891 31.9125 109.696 31.4322C108.564 30.984 107.53 30.3215 106.65 29.481C105.792 28.6551 105.105 27.6689 104.627 26.5783C104.135 25.4694 103.884 24.2691 103.889 23.0563C103.884 21.8409 104.144 20.6391 104.651 19.5343C105.143 18.4458 105.837 17.4607 106.697 16.6315C107.571 15.7953 108.596 15.1331 109.717 14.6804C110.903 14.1986 112.173 13.9558 113.453 13.966C114.754 13.9547 116.046 14.1889 117.26 14.6564C118.394 15.0919 119.435 15.7376 120.329 16.5596C121.204 17.3722 121.908 18.3511 122.4 19.4392C122.911 20.5595 123.171 21.7773 123.164 23.0083ZM118.643 23.0563C118.647 22.4014 118.516 21.7528 118.258 21.1508C118 20.5489 117.621 20.0067 117.144 19.5582C116.658 19.1147 116.093 18.7674 115.478 18.5347C114.802 18.2766 114.083 18.1476 113.36 18.1544C112.716 18.1529 112.078 18.2787 111.482 18.5246C110.887 18.7704 110.346 19.1314 109.89 19.5869C109.435 20.0423 109.074 20.5833 108.828 21.1787C108.582 21.7741 108.456 22.4121 108.458 23.0563C108.454 23.7026 108.583 24.3427 108.839 24.9363C109.355 26.1183 110.298 27.0616 111.481 27.577C112.074 27.8326 112.714 27.9624 113.36 27.9581C114.084 27.9651 114.802 27.8358 115.478 27.577C116.093 27.3459 116.658 27 117.144 26.5577C117.621 26.1092 118 25.5671 118.258 24.9651C118.516 24.3632 118.647 23.7145 118.643 23.0597V23.0563Z" fill="white"/>
<path d="M136.011 31.8134H133.06L124.066 6.68646H129.016L133.775 20.0122L134.584 22.7248L135.345 20.0593L140.152 6.68646H145.102L136.011 31.8134Z" fill="white"/>
<path d="M150.531 24.3409C150.763 25.4191 151.37 26.3801 152.244 27.0535C153.124 27.7482 154.216 28.1176 155.337 28.0993C156.307 28.1134 157.256 27.8218 158.05 27.2659C158.833 26.7225 159.47 25.9955 159.906 25.1486L163.38 27.528C162.206 29.1776 160.968 30.3673 159.668 31.0971C158.368 31.8269 156.893 32.1917 155.242 32.1917C153.815 32.1917 152.53 31.9379 151.388 31.4303C150.309 30.9673 149.335 30.2928 148.521 29.4468C147.708 28.6007 147.072 27.6003 146.652 26.5044C146.223 25.4051 146.005 24.2346 146.01 23.0544C146.008 21.8898 146.226 20.7353 146.652 19.6514C147.072 18.5702 147.703 17.5834 148.508 16.7487C149.339 15.894 150.333 15.2148 151.432 14.7513C152.574 14.2596 153.843 14.0138 155.24 14.0138C156.698 14.0138 157.983 14.2676 159.094 14.7752C160.181 15.2654 161.142 15.9978 161.902 16.9165C162.687 17.8803 163.277 18.9875 163.64 20.1765C164.035 21.4327 164.233 22.8208 164.234 24.3409H150.531ZM159.145 20.4865C158.447 18.9328 157.162 18.1556 155.29 18.1551C154.415 18.1433 153.553 18.365 152.792 18.7975C152.074 19.1981 151.475 19.7806 151.055 20.4865H159.145Z" fill="white"/>
<path d="M175.371 19.0577C175.022 18.8042 174.705 18.6537 174.42 18.6063C174.246 18.5728 174.071 18.5488 173.896 18.5344C173.325 18.5344 172.873 18.7168 172.54 19.0817C172.195 19.4672 171.935 19.9214 171.778 20.4144C171.6 20.961 171.497 21.5292 171.472 22.1035C171.44 22.7065 171.424 23.2458 171.425 23.7214V31.8121H166.904V14.3948H171.425V15.7755C171.869 15.2045 172.368 14.7999 172.923 14.5618C173.478 14.3237 173.978 14.2046 174.423 14.2046C175.021 14.1941 175.616 14.2827 176.184 14.4667C176.686 14.6391 177.178 14.8375 177.659 15.0612L175.371 19.0577Z" fill="white"/>
<path d="M191.028 26.149C191.037 26.9948 190.859 27.832 190.505 28.6003C190.165 29.3332 189.679 29.989 189.077 30.5275C188.469 31.0703 187.768 31.4979 187.007 31.7892C186.209 32.0938 185.362 32.2472 184.508 32.2414C183.031 32.2565 181.591 31.7792 180.415 30.8847C179.209 29.9802 178.289 28.5764 177.655 26.6732L181.75 25.1503C182.099 26.2923 182.504 27.0774 182.964 27.5057C183.424 27.934 183.94 28.1481 184.511 28.1481C184.78 28.1502 185.047 28.0986 185.296 27.9965C185.546 27.8944 185.772 27.7438 185.962 27.5533C186.153 27.3629 186.303 27.1365 186.406 26.8874C186.508 26.6382 186.559 26.3712 186.557 26.1019C186.557 25.5623 186.357 25.2054 185.958 25.0312C185.455 24.8187 184.94 24.6359 184.416 24.4839C183.785 24.2698 183.165 24.0233 182.56 23.7456C181.907 23.4541 181.29 23.087 180.722 22.6518C180.171 22.2273 179.697 21.712 179.319 21.1281C178.935 20.5243 178.738 19.8209 178.752 19.1058C178.741 18.3645 178.904 17.6309 179.229 16.9645C179.53 16.3488 179.961 15.805 180.49 15.3697C181.036 14.9291 181.657 14.5905 182.322 14.3701C183.012 14.1341 183.735 14.0137 184.464 14.0138C185.452 14.0146 186.425 14.2597 187.295 14.7273C188.2 15.2035 189.08 16.1077 189.937 17.4399L186.173 19.5341C185.729 18.7729 185.364 18.3367 185.08 18.2253C184.869 18.1323 184.643 18.0761 184.413 18.0591C184.032 18.0591 183.746 18.1622 183.557 18.3683C183.382 18.5375 183.28 18.7677 183.271 19.0107C183.271 19.296 183.461 19.5426 183.842 19.7482C184.302 19.9895 184.779 20.1962 185.27 20.3666C185.841 20.5739 186.467 20.812 187.15 21.0809C187.821 21.344 188.453 21.696 189.031 22.1276C189.61 22.5657 190.096 23.1159 190.459 23.7456C190.838 24.3965 191.028 25.1977 191.028 26.149Z" fill="white"/>
<path d="M197.168 24.3409C197.4 25.4191 198.007 26.38 198.881 27.0535C199.76 27.7483 200.853 28.1178 201.974 28.0993C202.943 28.1136 203.892 27.8219 204.686 27.2659C205.469 26.7229 206.106 25.9958 206.542 25.1486L210.015 27.5297C208.841 29.1794 207.603 30.3691 206.303 31.0988C205.003 31.8286 203.528 32.1934 201.879 32.1934C200.451 32.1934 199.166 31.9396 198.024 31.432C196.946 30.969 195.971 30.2946 195.158 29.4485C194.344 28.6025 193.709 27.602 193.288 26.5061C192.859 25.4068 192.641 24.2363 192.646 23.0561C192.644 21.8915 192.862 20.737 193.288 19.6531C193.708 18.5718 194.339 17.5849 195.145 16.7504C195.976 15.8943 196.971 15.2145 198.071 14.7513C199.213 14.2596 200.482 14.0138 201.879 14.0138C203.338 14.0138 204.623 14.2676 205.733 14.7752C206.82 15.2654 207.78 15.9978 208.541 16.9165C209.325 17.8804 209.915 18.9876 210.278 20.1765C210.674 21.4327 210.872 22.8208 210.873 24.3409H197.168ZM205.782 20.4865C205.084 18.9328 203.799 18.1556 201.927 18.1551C201.052 18.1433 200.19 18.365 199.429 18.7975C198.711 19.1981 198.112 19.7806 197.692 20.4865H205.782Z" fill="white"/>
</g>
<defs>
<clipPath id="clip0_66_8900">
<rect width="210.62" height="45.9463" fill="white" transform="translate(0.253906 0.94751)"/>
</clipPath>
</defs>
</svg>
