<svg width="18" height="18" viewBox="0 0 18 18" fill="none" xmlns="http://www.w3.org/2000/svg">
<path d="M12.5 11.447H11.71L11.43 11.1797C12.41 10.0511 13 8.58604 13 6.99223C13 3.43834 10.09 0.557617 6.5 0.557617C2.91 0.557617 0 3.43834 0 6.99223C0 10.5461 2.91 13.4268 6.5 13.4268C8.11 13.4268 9.58999 12.8428 10.73 11.8726L11 12.1498V12.9319L16 17.8717L17.49 16.3967L12.5 11.447ZM6.5 11.447C4.01 11.447 2 9.45718 2 6.99223C2 4.52728 4.01 2.5375 6.5 2.5375C8.99 2.5375 11 4.52728 11 6.99223C11 9.45718 8.99 11.447 6.5 11.447Z" fill="white"/>
</svg>
