<svg width="223" height="199" viewBox="0 0 223 199" fill="none" xmlns="http://www.w3.org/2000/svg">
<path d="M61 58.9074V29.9983L86.3559 44.3869L61 58.9074Z" fill="white"/>
<path d="M86.2508 73.3181L86.3559 44.387L61 58.9075L86.2508 73.3181Z" fill="white"/>
<path d="M61 87.5622V58.9071L86.2508 73.3177L61 87.5622Z" fill="white"/>
<path d="M86.0146 102.215L86.2491 73.318L110.574 87.6602L86.0146 102.215Z" fill="white"/>
<path d="M110.591 116.012L110.574 87.6598L86.0146 102.214L110.591 116.012Z" fill="white"/>
<path d="M111.711 116.633L111.687 87.7161L136.222 102.263L111.711 116.633Z" fill="white"/>
<path d="M136.216 131V102.264L111.705 116.633L136.216 131Z" fill="white"/>
<path d="M86.0164 102.215L86.2508 73.318L61 87.5625L86.0164 102.215Z" fill="white"/>
<path d="M86.3553 14.445L61.1313 29.0021L86.3553 43.2735V14.445Z" fill="white"/>
<path d="M86.3525 14.445L111.254 28.9948L86.3525 43.2735V14.445Z" fill="white"/>
<path d="M86.3525 14.4448L111.254 28.9945L111.198 0L86.3525 14.4448Z" fill="white"/>
<path d="M161.239 29.9785L136.223 44.4305L161.239 58.8826V29.9785Z" fill="white"/>
<path d="M136.223 44.4304L161.239 58.8825L136.223 72.9829V44.4304Z" fill="white"/>
<path d="M161.239 58.8824L136.223 72.9828L161.239 87.4349V58.8824Z" fill="white"/>
<path d="M136.223 72.9838L161.239 87.4359L136.223 102.264V72.9838Z" fill="white"/>
<path d="M136.218 14.452L111.255 28.9944L136.218 43.2438V14.452Z" fill="white"/>
<path d="M160.707 29.158L136.223 43.2438V14.452L160.707 29.158Z" fill="white"/>
<path d="M136.217 14.4521L111.254 28.9945L111.198 0L136.217 14.4521Z" fill="white"/>
<path d="M136.221 102.264L122.523 94.1467L122.528 81.1574L136.221 72.9838V102.264Z" fill="white"/>
<path d="M106.59 59.3907C106.589 58.438 106.88 57.5081 107.425 56.7264L99.8765 52.3649L99.6763 65.1246L106.866 60.9731C106.683 60.4655 106.59 59.9301 106.59 59.3907Z" fill="white"/>
<path d="M110.699 54.7481V46.0349L99.8735 52.3647L107.422 56.7262C107.798 56.1838 108.284 55.727 108.849 55.3861C109.414 55.0451 110.044 54.8277 110.699 54.7481Z" fill="white"/>
<path d="M110.699 54.7481V46.0349L99.8735 52.3647L107.422 56.7262C107.798 56.1838 108.284 55.727 108.849 55.3861C109.414 55.0451 110.044 54.8277 110.699 54.7481Z" fill="white"/>
<path d="M115.102 56.7151L122.712 52.2608L111.696 46.0384V54.7346C112.373 54.7977 113.029 55.0076 113.617 55.3496C114.206 55.6916 114.712 56.1575 115.102 56.7151Z" fill="white"/>
<path d="M115.638 61.0738L115.677 61.1007L122.889 65.2644L122.72 52.2604L115.111 56.7147C115.55 57.3422 115.828 58.0681 115.92 58.8283C116.012 59.5885 115.915 60.3597 115.638 61.0738Z" fill="white"/>
<path d="M111.302 64.1163L111.314 72.7416L122.489 66.2702L115.182 61.9624C114.767 62.617 114.194 63.1571 113.516 63.5334C112.838 63.9096 112.077 64.11 111.302 64.1163Z" fill="white"/>
<path d="M111.271 64.1166C110.471 64.1151 109.686 63.9074 108.991 63.5133C108.296 63.1193 107.714 62.5523 107.302 61.8674L100.042 66.1484L111.312 72.7419L111.307 64.1166H111.271Z" fill="white"/>
<path d="M17.64 189.88C15.5333 189.88 13.96 189.32 12.92 188.2C11.9067 187.08 11.3733 185.427 11.32 183.24C4.76 182.36 1.48 178.027 1.48 170.24C1.48 165.6 2.50667 162.213 4.56 160.08C6.64 157.92 9.78667 156.84 14 156.84C18.2133 156.84 21.3467 157.92 23.4 160.08C25.48 162.213 26.52 165.6 26.52 170.24C26.52 178.32 22.9867 182.68 15.92 183.32C15.9467 184.36 16.1867 185.067 16.64 185.44C17.0933 185.84 17.84 186.04 18.88 186.04C19.8933 186.04 20.84 185.893 21.72 185.6V189.36C21.24 189.493 20.6133 189.613 19.84 189.72C19.0933 189.827 18.36 189.88 17.64 189.88ZM14 178.8C16.4 178.8 18.1733 178.107 19.32 176.72C20.4667 175.307 21.04 173.147 21.04 170.24C21.04 167.067 20.48 164.813 19.36 163.48C18.24 162.12 16.4533 161.44 14 161.44C11.5467 161.44 9.76 162.12 8.64 163.48C7.52 164.813 6.96 167.067 6.96 170.24C6.96 173.147 7.53333 175.307 8.68 176.72C9.82667 178.107 11.6 178.8 14 178.8ZM30.2878 164.04H35.2878L35.5278 166C36.4078 165.44 37.4745 164.947 38.7278 164.52C39.9811 164.093 41.2211 163.8 42.4478 163.64V167.72C41.3011 167.88 40.0745 168.16 38.7678 168.56C37.4611 168.933 36.4345 169.333 35.6878 169.76V183H30.2878V164.04ZM48.1775 190.04C46.5242 190.04 45.1642 189.827 44.0975 189.4V185.6C44.8442 185.867 45.6575 186 46.5375 186C47.6042 186 48.4308 185.76 49.0175 185.28C49.6308 184.8 50.2575 183.933 50.8975 182.68L42.4175 164.04H48.0575L53.6175 176.92L59.1375 164.04H64.7375L57.2575 181.68C56.0842 184.48 54.8175 186.573 53.4575 187.96C52.0975 189.347 50.3375 190.04 48.1775 190.04ZM66.7331 164.04H71.4131L71.6931 165.8C72.5465 165.08 73.4665 164.547 74.4531 164.2C75.4398 163.827 76.5865 163.64 77.8931 163.64C80.7465 163.64 82.9065 164.413 84.3731 165.96C85.8398 167.507 86.5731 169.947 86.5731 173.28C86.5731 176.64 85.7865 179.173 84.2131 180.88C82.6398 182.56 80.4265 183.4 77.5731 183.4C75.4398 183.4 73.6265 182.92 72.1331 181.96V191.64H66.7331V164.04ZM76.2131 179.44C77.8398 179.44 79.0531 178.947 79.8531 177.96C80.6798 176.947 81.0931 175.4 81.0931 173.32C81.0931 171.293 80.7198 169.84 79.9731 168.96C79.2265 168.053 78.0265 167.6 76.3731 167.6C74.7198 167.6 73.3065 168.173 72.1331 169.32V178C72.7465 178.48 73.3598 178.84 73.9731 179.08C74.6131 179.32 75.3598 179.44 76.2131 179.44ZM97.8469 183.4C95.6869 183.4 94.0735 182.84 93.0069 181.72C91.9402 180.6 91.4069 179.027 91.4069 177V168.2H88.7269V164.04H91.4069V159.96L96.8069 158.36V164.04H101.607L101.287 168.2H96.8069V176.64C96.8069 177.653 97.0335 178.36 97.4869 178.76C97.9669 179.16 98.7269 179.36 99.7669 179.36C100.514 179.36 101.287 179.227 102.087 178.96V182.68C100.887 183.16 99.4735 183.4 97.8469 183.4ZM113.518 183.4C106.664 183.4 103.238 180.107 103.238 173.52C103.238 170.32 104.078 167.88 105.758 166.2C107.464 164.493 110.051 163.64 113.518 163.64C116.984 163.64 119.571 164.493 121.278 166.2C122.984 167.88 123.838 170.32 123.838 173.52C123.838 180.107 120.398 183.4 113.518 183.4ZM113.518 178.8C115.278 178.8 116.518 178.4 117.238 177.6C117.984 176.8 118.358 175.44 118.358 173.52C118.358 171.6 117.984 170.24 117.238 169.44C116.518 168.64 115.278 168.24 113.518 168.24C111.784 168.24 110.544 168.64 109.798 169.44C109.078 170.24 108.718 171.6 108.718 173.52C108.718 175.44 109.078 176.8 109.798 177.6C110.544 178.4 111.784 178.8 113.518 178.8ZM124.605 164.04H130.245L134.965 177.56L139.725 164.04H145.325L137.885 183H132.085L124.605 164.04ZM157.004 183.4C153.644 183.4 151.017 182.573 149.124 180.92C147.257 179.24 146.324 176.76 146.324 173.48C146.324 170.387 147.137 167.973 148.764 166.24C150.417 164.507 152.817 163.64 155.964 163.64C158.844 163.64 161.07 164.4 162.644 165.92C164.244 167.413 165.044 169.427 165.044 171.96V175.4H151.324C151.59 176.867 152.257 177.893 153.324 178.48C154.417 179.067 156.017 179.36 158.124 179.36C159.137 179.36 160.164 179.267 161.204 179.08C162.27 178.893 163.177 178.653 163.924 178.36V182.2C162.164 183 159.857 183.4 157.004 183.4ZM160.324 172.08V171.04C160.324 168.693 158.924 167.52 156.124 167.52C154.364 167.52 153.124 167.88 152.404 168.6C151.684 169.293 151.324 170.453 151.324 172.08H160.324ZM168.803 164.04H173.803L174.043 166C174.923 165.44 175.99 164.947 177.243 164.52C178.497 164.093 179.737 163.8 180.963 163.64V167.72C179.817 167.88 178.59 168.16 177.283 168.56C175.977 168.933 174.95 169.333 174.203 169.76V183H168.803V164.04ZM190.601 183.4C189.214 183.4 187.881 183.307 186.601 183.12C185.321 182.933 184.281 182.68 183.481 182.36V177.88C184.361 178.253 185.387 178.547 186.561 178.76C187.734 178.947 188.841 179.04 189.881 179.04C191.267 179.04 192.214 178.96 192.721 178.8C193.254 178.613 193.521 178.253 193.521 177.72C193.521 177.24 193.281 176.867 192.801 176.6C192.321 176.333 191.401 175.987 190.041 175.56C189.641 175.453 189.134 175.293 188.521 175.08C186.654 174.467 185.281 173.733 184.401 172.88C183.547 172.027 183.121 170.827 183.121 169.28C183.121 167.44 183.787 166.04 185.121 165.08C186.481 164.12 188.601 163.64 191.481 163.64C192.574 163.64 193.641 163.72 194.681 163.88C195.747 164.04 196.667 164.253 197.441 164.52V168.96C196.747 168.64 195.934 168.387 195.001 168.2C194.067 168.013 193.187 167.92 192.361 167.92C191.081 167.92 190.134 168.013 189.521 168.2C188.907 168.36 188.601 168.693 188.601 169.2C188.601 169.653 188.814 170 189.241 170.24C189.694 170.453 190.547 170.747 191.801 171.12L193.121 171.52C194.667 172 195.854 172.507 196.681 173.04C197.507 173.547 198.094 174.16 198.441 174.88C198.814 175.6 199.001 176.52 199.001 177.64C199.001 179.533 198.294 180.973 196.881 181.96C195.467 182.92 193.374 183.4 190.601 183.4ZM212.629 183.4C209.269 183.4 206.642 182.573 204.749 180.92C202.882 179.24 201.949 176.76 201.949 173.48C201.949 170.387 202.762 167.973 204.389 166.24C206.042 164.507 208.442 163.64 211.589 163.64C214.469 163.64 216.695 164.4 218.269 165.92C219.869 167.413 220.669 169.427 220.669 171.96V175.4H206.949C207.215 176.867 207.882 177.893 208.949 178.48C210.042 179.067 211.642 179.36 213.749 179.36C214.762 179.36 215.789 179.267 216.829 179.08C217.895 178.893 218.802 178.653 219.549 178.36V182.2C217.789 183 215.482 183.4 212.629 183.4ZM215.949 172.08V171.04C215.949 168.693 214.549 167.52 211.749 167.52C209.989 167.52 208.749 167.88 208.029 168.6C207.309 169.293 206.949 170.453 206.949 172.08H215.949Z" fill="white"/>
</svg>
