<svg width="40" height="40" viewBox="0 0 40 40" fill="none" xmlns="http://www.w3.org/2000/svg">
<rect width="40" height="40" rx="20" fill="white"/>
<path fill-rule="evenodd" clip-rule="evenodd" d="M10.0371 18.2933C16.2386 15.5914 20.3739 13.8101 22.443 12.9495C28.3507 10.4923 29.5783 10.0655 30.3784 10.0514C30.5544 10.0483 30.9479 10.0919 31.2028 10.2987C31.418 10.4733 31.4772 10.7092 31.5055 10.8748C31.5338 11.0403 31.5691 11.4175 31.5411 11.7122C31.2209 15.076 29.8357 23.2389 29.131 27.0063C28.8328 28.6005 28.2456 29.135 27.6772 29.1873C26.4418 29.301 25.5037 28.3709 24.3072 27.5866C22.4349 26.3593 21.3772 25.5953 19.5598 24.3976C17.4595 23.0136 18.8211 22.2529 20.018 21.0097C20.3313 20.6843 25.7743 15.7335 25.8796 15.2844C25.8928 15.2282 25.905 15.0188 25.7806 14.9082C25.6563 14.7977 25.4727 14.8355 25.3402 14.8656C25.1524 14.9082 22.1614 16.8851 16.3672 20.7964C15.5182 21.3794 14.7492 21.6634 14.0602 21.6485C13.3006 21.6321 11.8396 21.2191 10.7534 20.866C9.42119 20.433 8.36237 20.204 8.45457 19.4686C8.50259 19.0855 9.03012 18.6937 10.0371 18.2933Z" fill="#0E091A"/>
</svg>
