<svg width="43" height="44" viewBox="0 0 43 44" fill="none" xmlns="http://www.w3.org/2000/svg">
<path d="M0.139893 22.0958C0.139893 10.2875 9.71242 0.714935 21.5207 0.714935V0.714935C33.3291 0.714935 42.9016 10.2875 42.9016 22.0958V22.0958C42.9016 33.9041 33.3291 43.4766 21.5207 43.4766V43.4766C9.71242 43.4766 0.139893 33.9041 0.139893 22.0958V22.0958Z" fill="black"/>
<path d="M17.6081 33.3742C27.0905 33.3742 32.2754 25.5167 32.2754 18.7069C32.2754 18.4824 32.2753 18.2579 32.2647 18.0441C33.2696 17.3172 34.1462 16.4085 34.8411 15.3715C33.9217 15.7777 32.9275 16.0557 31.8798 16.184C32.9488 15.5426 33.7613 14.5377 34.1462 13.3296C33.152 13.9176 32.0508 14.3452 30.8749 14.5804C29.9341 13.5755 28.5978 12.9555 27.1119 12.9555C24.2682 12.9555 21.9591 15.2646 21.9591 18.1083C21.9591 18.5145 22.0019 18.91 22.0981 19.2842C17.8112 19.0704 14.0161 17.0178 11.4718 13.8962C11.0335 14.6553 10.7769 15.5426 10.7769 16.4833C10.7769 18.2686 11.6856 19.8508 13.0754 20.7702C12.2308 20.7488 11.4397 20.5136 10.7448 20.1288C10.7448 20.1501 10.7448 20.1715 10.7448 20.1929C10.7448 22.6945 12.5194 24.7684 14.882 25.2495C14.4544 25.3671 13.9947 25.4312 13.5243 25.4312C13.1929 25.4312 12.8722 25.3991 12.5515 25.335C13.2036 27.3875 15.1065 28.8735 17.3622 28.9163C15.5983 30.2953 13.3747 31.1185 10.9586 31.1185C10.5417 31.1185 10.1355 31.0971 9.72925 31.0437C11.9849 32.519 14.7003 33.3742 17.6081 33.3742Z" fill="white"/>
</svg>
