<svg width="48" height="44" viewBox="0 0 48 44" fill="none" xmlns="http://www.w3.org/2000/svg">
<path fill-rule="evenodd" clip-rule="evenodd" d="M12.0311 0.390845C10.5627 0.683527 9.24475 1.68887 8.60258 3.00598C8.05989 4.1188 8.08458 3.50076 8.08458 15.9916V27.5098L8.28787 28.1561C8.80522 29.8005 10.2852 31.1597 11.9283 31.4995C12.251 31.5663 17.2578 31.5891 27.9087 31.5724L43.4193 31.5481L43.9664 31.3418C45.108 30.9111 46.0793 30.063 46.6292 29.0167C47.253 27.8295 47.2253 28.4344 47.2267 15.9732C47.2277 8.15375 47.1974 4.56328 47.1274 4.22554C46.8488 2.8796 45.7782 1.45979 44.5893 0.85965C43.4174 0.268045 44.3801 0.299342 27.6334 0.308887C19.254 0.313659 12.233 0.350554 12.0311 0.390845ZM43.0134 4.51225L43.2817 4.78052V11.9188C43.2817 15.8527 43.2466 19.0179 43.2035 18.9698C43.1606 18.9218 41.7639 17.2926 40.0998 15.3492C38.4357 13.4058 36.9209 11.6817 36.7337 11.518C35.4771 10.4194 33.5633 10.4132 32.316 11.5038C32.1198 11.6754 30.3108 13.792 28.296 16.2074L24.6326 20.5991L24.2974 20.2935C24.1131 20.1253 23.4667 19.5034 22.8609 18.9114C21.443 17.5256 21.0463 17.321 19.7863 17.3257C18.3446 17.3311 18.3236 17.3458 14.8991 20.7511L11.9852 23.6487V14.3047C11.9852 5.74043 11.9979 4.93902 12.1384 4.70113C12.2228 4.55842 12.3776 4.40001 12.4826 4.34907C12.6085 4.28794 17.7942 4.25426 27.7093 4.25022L42.7451 4.24398L43.0134 4.51225ZM16.8725 6.31313C16.1373 6.5111 15.6687 6.78662 15.1036 7.35298C13.6023 8.85769 13.5661 11.1941 15.0203 12.7317C15.8227 13.5802 16.7204 13.9725 17.859 13.9725C18.9901 13.9725 19.8958 13.5796 20.6827 12.7476C21.2544 12.1431 21.5058 11.6583 21.6795 10.8258C22.2577 8.05243 19.6176 5.57395 16.8725 6.31313ZM2.67892 22.0496C0.971834 27.7458 0.289828 30.1506 0.258899 30.583C0.137843 32.2746 1.14089 34.021 2.65634 34.7572C3.15717 35.0005 6.84695 36.0215 18.272 39.078C26.4999 41.2791 33.4574 43.1389 33.733 43.2109C34.3173 43.3633 35.3494 43.3779 35.9394 43.2421C37.0211 42.9929 38.203 42.1068 38.7195 41.1577C38.8546 40.9094 39.3795 39.3892 39.8857 37.7792C40.3921 36.1693 40.8291 34.7798 40.857 34.6915C40.9052 34.539 40.1672 34.5309 26.2399 34.5303C11.9589 34.5296 11.5522 34.5248 10.8172 34.3486C8.12625 33.7035 6.13548 31.7345 5.34976 28.9409C5.15951 28.2645 5.15235 28.0366 5.10481 21.1812L5.05589 14.1182L2.67892 22.0496Z" fill="url(#paint0_linear_66_19227)"/>
<defs>
<linearGradient id="paint0_linear_66_19227" x1="0.249023" y1="0.305275" x2="54.4513" y2="30.2648" gradientUnits="userSpaceOnUse">
<stop stop-color="#FC466B"/>
<stop offset="1" stop-color="#3F5EFB"/>
</linearGradient>
</defs>
</svg>
